<svg width="311" height="65" viewBox="0 0 311 65" fill="none" xmlns="http://www.w3.org/2000/svg">
<path d="M35.7767 2.16657C36.2287 2.35795 36.6003 2.64309 36.9951 2.92977C37.2313 3.09029 37.469 3.24872 37.7066 3.40722C37.9794 3.58945 38.2512 3.77305 38.5229 3.95701C39.1064 4.352 39.6912 4.74502 40.2765 5.13758C40.3771 5.20509 40.4777 5.2726 40.5813 5.34216C41.3677 5.86972 42.1547 6.39636 42.9417 6.9229C43.7479 7.46227 44.5536 8.00242 45.3577 8.54469C47.0858 9.7098 48.8195 10.8669 50.5529 12.0243C52.3175 13.2025 54.0813 14.3818 55.8378 15.5718C57.2081 16.5001 58.5821 17.423 59.9578 18.3436C60.0752 18.4221 60.1926 18.5007 60.3136 18.5816C60.9983 19.0399 60.9983 19.0399 61.6831 19.4979C62.2852 19.9005 62.8866 20.3041 63.4871 20.7089C63.7059 20.8561 63.925 21.0029 64.1443 21.1493C64.4939 21.3829 64.8427 21.6178 65.1914 21.8529C65.2988 21.9243 65.4063 21.9957 65.517 22.0693C66.7648 22.9148 66.7648 22.9148 67.0121 23.645C67.0226 23.8414 67.0266 24.0382 67.0269 24.2348C67.0274 24.358 67.0279 24.4813 67.0284 24.6082C67.0284 24.8122 67.0284 24.8122 67.0284 25.0203C67.0287 25.1657 67.0291 25.3112 67.0296 25.4566C67.0307 25.8572 67.0311 26.2577 67.0314 26.6583C67.0318 27.0899 67.0329 27.5216 67.0339 27.9533C67.0361 28.9961 67.0372 30.039 67.0382 31.0818C67.0386 31.5728 67.0392 32.0637 67.0398 32.5547C67.0417 34.1864 67.0433 35.8181 67.0441 37.4497C67.0443 37.8732 67.0445 38.2967 67.0448 38.7202C67.0448 38.8255 67.0449 38.9307 67.0449 39.0392C67.0458 40.7448 67.0486 42.4505 67.0522 44.1561C67.0559 45.9067 67.0579 47.6573 67.0583 49.4079C67.0585 50.391 67.0595 51.3741 67.0623 52.3572C67.0647 53.1944 67.0656 54.0315 67.0645 54.8687C67.064 55.2958 67.0642 55.723 67.0664 56.1501C67.0683 56.5413 67.0682 56.9324 67.0665 57.3236C67.0661 57.5319 67.0679 57.7401 67.0698 57.9484C67.0642 58.6773 67.0187 59.144 66.569 59.7332C66.0786 60.1912 65.6022 60.4146 64.9246 60.4147C64.8189 60.4152 64.7133 60.4157 64.6044 60.4163C64.4893 60.4158 64.3741 60.4153 64.2555 60.4148C64.1324 60.4151 64.0094 60.4154 63.8826 60.4157C63.4696 60.4166 63.0565 60.4159 62.6434 60.4152C62.3476 60.4155 62.0518 60.4159 61.7559 60.4164C61.1185 60.4173 60.481 60.4175 59.8436 60.4173C58.9212 60.4169 57.9989 60.4182 57.0765 60.4199C55.579 60.4228 54.0816 60.4249 52.5841 60.4264C52.4945 60.4265 52.4049 60.4266 52.3126 60.4267C51.0406 60.4279 49.7687 60.4285 48.4968 60.4288C48.4072 60.4288 48.3176 60.4288 48.2253 60.4289C48.1358 60.4289 48.0464 60.4289 47.9542 60.4289C46.4624 60.4293 44.9707 60.4314 43.479 60.4349C42.5589 60.4369 41.6389 60.4376 40.7188 60.4364C40.0884 60.4357 39.4581 60.4366 38.8277 60.4387C38.464 60.4399 38.1003 60.4401 37.7365 60.4389C37.3422 60.4377 36.9479 60.4391 36.5536 60.4413C36.3812 60.4398 36.3812 60.4398 36.2054 60.4382C35.5625 60.445 35.1733 60.4993 34.6691 60.9325C34.474 61.1595 34.2969 61.3801 34.1222 61.6207C32.9811 63.1256 31.4333 64.2738 29.5363 64.6931C27.4136 64.983 25.5264 64.6866 23.7493 63.4606C22.7903 62.7402 21.6854 61.7514 21.2666 60.6054C21.3719 60.3722 21.3719 60.3722 21.4882 60.1693C21.5609 60.1716 21.6336 60.1738 21.7085 60.1762C22.4687 60.1982 23.2284 60.2087 23.9889 60.2125C24.2722 60.2155 24.5555 60.2213 24.8387 60.2302C26.3297 60.3462 26.3297 60.3462 27.6936 59.9009C28.0889 59.4636 28.2733 58.9714 28.4663 58.4248C28.5621 58.2774 28.5621 58.2774 28.6599 58.1269C28.8209 57.894 28.8209 57.894 28.7795 57.6568C28.678 57.4208 28.566 57.1992 28.4386 56.9755C28.3895 56.8889 28.3404 56.8022 28.2898 56.713C28.2384 56.6235 28.187 56.5341 28.134 56.4419C28.0826 56.3512 28.0312 56.2605 27.9782 56.167C27.7589 55.7447 27.7589 55.7447 27.4694 55.3721C27.2837 55.3598 27.0974 55.355 26.9113 55.3531C26.7328 55.3509 26.7328 55.3509 26.5506 55.3487C26.421 55.3475 26.2915 55.3464 26.158 55.3452C25.8868 55.3416 25.6156 55.338 25.3443 55.3344C24.9143 55.3292 24.4843 55.3244 24.0543 55.3201C23.6409 55.3158 23.2276 55.3101 22.8143 55.3043C22.685 55.3034 22.5556 55.3025 22.4224 55.3016C22.303 55.2998 22.1836 55.2979 22.0606 55.2961C21.9552 55.2949 21.8498 55.2938 21.7411 55.2927C21.4882 55.263 21.4882 55.263 21.2666 55.045C21.3419 54.0047 22.435 53.0635 23.1522 52.3819C24.9418 50.8585 27.0458 50.4112 29.3524 50.5748C31.3088 50.9085 33.0039 52.1311 34.226 53.6276C34.2899 53.7333 34.2899 53.7333 34.3551 53.841C34.6527 54.3094 34.6527 54.3094 35.1233 54.5803C35.4065 54.6099 35.6781 54.612 35.9629 54.6047C36.1239 54.6059 36.1238 54.6059 36.2881 54.607C36.6474 54.6084 37.0063 54.6036 37.3656 54.5989C37.6233 54.5986 37.8809 54.5988 38.1385 54.5993C38.8379 54.5995 39.5371 54.5944 40.2364 54.5883C40.8932 54.5834 41.5501 54.5825 42.2069 54.5816C43.5076 54.5797 44.8083 54.5739 46.109 54.5656C47.3724 54.5576 48.6357 54.5515 49.899 54.5478C49.9769 54.5475 50.0548 54.5473 50.1351 54.5471C50.5259 54.5459 50.9168 54.5448 51.3076 54.5437C54.5487 54.5347 57.7898 54.5193 61.0308 54.4998C61.0486 50.8997 61.0622 47.2996 61.0704 43.6995C61.0714 43.2745 61.0724 42.8495 61.0734 42.4246C61.0737 42.2976 61.0737 42.2976 61.074 42.1682C61.0774 40.798 61.0835 39.4279 61.0906 38.0578C61.0979 36.652 61.1022 35.2463 61.1038 33.8405C61.1048 32.973 61.1082 32.1055 61.1145 31.238C61.1191 30.5729 61.1196 29.9079 61.1185 29.2428C61.1187 28.9699 61.1203 28.6969 61.1232 28.424C61.1271 28.0517 61.1262 27.6798 61.1241 27.3075C61.1274 27.1449 61.1274 27.1449 61.1309 26.979C61.1262 26.4209 61.1262 26.4209 60.8628 25.9439C60.6679 25.7767 60.473 25.6355 60.2555 25.4985C60.154 25.4268 60.0526 25.3552 59.948 25.2814C59.8506 25.2187 59.7532 25.156 59.6528 25.0913C59.5434 25.0204 59.4339 24.9494 59.3212 24.8763C59.2069 24.8028 59.0926 24.7293 58.9748 24.6535C57.5247 23.7119 57.5247 23.7119 56.8495 23.2294C56.1077 22.7008 55.3509 22.1947 54.5927 21.6893C54.5264 21.6452 54.4602 21.601 54.392 21.5556C54.0492 21.3272 53.7064 21.099 53.3636 20.8708C52.679 20.4152 51.9951 19.9586 51.3113 19.502C51.2454 19.458 51.1796 19.414 51.1117 19.3687C50.3185 18.8391 49.5265 18.3079 48.7376 17.7722C48.063 17.3146 47.3853 16.8615 46.7077 16.4083C45.4545 15.5702 44.2034 14.7291 42.9538 13.8859C41.6981 13.0386 40.4417 12.1923 39.18 11.3537C39.0475 11.2656 38.915 11.1775 38.7825 11.0894C38.7169 11.0458 38.6513 11.0022 38.5837 10.9573C38.1917 10.6963 37.8018 10.4325 37.4135 10.1661C37.2295 10.04 37.045 9.91483 36.8602 9.78991C36.6323 9.63564 36.4054 9.47995 36.1796 9.32266C36.0269 9.22006 36.0269 9.22006 35.871 9.11538C35.7388 9.02468 35.7388 9.02468 35.6039 8.93214C35.2435 8.77892 35.0432 8.82209 34.6691 8.92629C34.4231 9.04972 34.4231 9.04972 34.2013 9.21717C34.1156 9.27779 34.0298 9.33841 33.9414 9.40086C33.8047 9.49988 33.8047 9.49988 33.6653 9.6009C33.4661 9.74167 33.2668 9.88221 33.0673 10.0225C32.9654 10.0944 32.8635 10.1664 32.7585 10.2405C32.2873 10.5686 31.8069 10.8823 31.3254 11.1954C29.556 12.3495 27.8052 13.5307 26.0541 14.7113C24.4756 15.7751 22.892 16.8317 21.3089 17.8888C20.2121 18.6212 19.1154 19.3537 18.0199 20.088C17.8732 20.1862 17.8732 20.1862 17.7236 20.2863C17.6322 20.3476 17.5408 20.409 17.4466 20.4721C17.3683 20.5246 17.29 20.5771 17.2094 20.6312C17.1227 20.6903 17.0361 20.7494 16.9469 20.8103C16.8154 20.873 16.6839 20.9356 16.5485 21.0002C16.2627 21.2045 16.182 21.3115 16.1005 21.6539C16.0742 22.0563 16.0735 22.455 16.0805 22.8577C16.0804 23.0143 16.08 23.1709 16.0792 23.3275C16.0781 23.7579 16.0819 24.1881 16.0864 24.6184C16.0904 25.0825 16.09 25.5465 16.09 26.0106C16.0908 26.8148 16.0943 27.6189 16.0997 28.423C16.1075 29.5863 16.1106 30.7496 16.1126 31.9128C16.1159 33.8009 16.1225 35.689 16.1313 37.577C16.1398 39.4098 16.1476 41.2427 16.154 43.0755C16.1544 43.1884 16.1548 43.3012 16.1552 43.4175C16.1594 44.6496 16.1632 45.8816 16.1664 47.1136C16.1667 47.2218 16.167 47.3301 16.1672 47.4416C16.1683 47.8743 16.1694 48.307 16.1705 48.7397C16.1735 50.0072 16.1779 51.2747 16.1846 52.5422C16.1888 53.3371 16.1919 54.132 16.1941 54.9269C16.1954 55.3858 16.1973 55.8447 16.2007 56.3037C16.2038 56.7236 16.2053 57.1435 16.2056 57.5634C16.206 57.7155 16.207 57.8676 16.2086 58.0197C16.2107 58.2261 16.2105 58.4325 16.2102 58.639C16.2108 58.7537 16.2113 58.8685 16.2119 58.9867C16.1517 59.4494 15.9645 59.737 15.6071 60.0371C15.1474 60.226 14.7302 60.2158 14.2366 60.2133C14.1317 60.2141 14.0269 60.2148 13.9188 60.2156C13.5726 60.2176 13.2264 60.2172 12.8802 60.2166C12.6392 60.2171 12.3982 60.2176 12.1572 60.2183C11.6523 60.2193 11.1474 60.219 10.6424 60.2179C9.99571 60.2167 9.34905 60.2189 8.70233 60.222C8.2047 60.224 7.70708 60.224 7.20944 60.2234C6.97102 60.2234 6.73259 60.224 6.49417 60.2254C6.16062 60.227 5.8272 60.2259 5.49366 60.224C5.39541 60.225 5.29717 60.2261 5.19595 60.2272C4.59096 60.2201 4.24605 60.1292 3.76597 59.7332C3.34563 59.2635 3.1984 59.0139 3.1976 58.3933C3.19717 58.2702 3.19675 58.1471 3.19631 58.0203C3.19641 57.884 3.1965 57.7476 3.1966 57.6071C3.19631 57.4617 3.19598 57.3162 3.1956 57.1708C3.19471 56.7698 3.19451 56.3688 3.19443 55.9678C3.19423 55.5358 3.19339 55.1039 3.19264 54.6719C3.19114 53.7267 3.19047 52.7815 3.18998 51.8363C3.18968 51.2463 3.18921 50.6564 3.18871 50.0664C3.18736 48.4338 3.18622 46.8012 3.18584 45.1686C3.18582 45.064 3.18579 44.9595 3.18577 44.8517C3.18575 44.7469 3.18572 44.6421 3.1857 44.5342C3.18565 44.3218 3.1856 44.1094 3.18555 43.897C3.18552 43.7917 3.1855 43.6863 3.18547 43.5778C3.18504 41.8706 3.1831 40.1635 3.18052 38.4564C3.1779 36.7047 3.17652 34.953 3.17639 33.2013C3.17628 32.2174 3.17565 31.2335 3.17364 30.2496C3.17193 29.4117 3.17136 28.5739 3.17228 27.7361C3.17271 27.3085 3.17261 26.8809 3.17106 26.4533C3.16965 26.0619 3.16977 25.6705 3.17112 25.2791C3.17144 25.0704 3.17012 24.8617 3.16875 24.653C3.17314 23.9057 3.20374 23.3619 3.73398 22.7845C4.28973 22.3253 4.86734 21.9211 5.47589 21.5326C5.6825 21.3989 5.88903 21.265 6.09547 21.131C6.20327 21.0612 6.31107 20.9913 6.42214 20.9194C6.99625 20.545 7.56518 20.1632 8.13422 19.7814C8.30882 19.6643 8.30882 19.6643 8.48695 19.5449C8.83327 19.3126 9.17949 19.0802 9.52569 18.8478C9.73625 18.7065 9.94682 18.5653 10.1574 18.424C10.6589 18.0876 11.1604 17.7509 11.6618 17.4143C11.9685 17.2084 12.2753 17.0025 12.5821 16.7967C13.5391 16.1547 14.4959 15.5123 15.4515 14.8683C16.5103 14.1548 17.5704 13.4434 18.6306 12.7321C19.1402 12.3903 19.6496 12.0484 20.159 11.7065C20.7721 11.295 21.3851 10.8836 21.9983 10.4723C23.3061 9.59491 24.6128 8.71611 25.9187 7.83601C27.1286 7.02061 28.3392 6.20619 29.5509 5.39351C30.1331 5.00301 30.7146 4.61166 31.2955 4.21947C32.0322 3.7223 32.7702 3.22733 33.513 2.73897C33.5823 2.69332 33.6516 2.64767 33.723 2.60064C34.4257 2.14033 34.9288 2.05149 35.7767 2.16657Z" fill="#FC5A11"/>
<path d="M59.8124 29.5327C59.8176 32.6279 59.8215 35.7231 59.8239 38.8183C59.8251 40.2554 59.8266 41.6924 59.8292 43.1295C59.8314 44.3816 59.8328 45.6337 59.8333 46.8858C59.8336 47.5492 59.8343 48.2126 59.8359 48.8759C59.8374 49.4997 59.8378 50.1234 59.8375 50.7471C59.8376 50.9767 59.838 51.2062 59.8389 51.4357C59.8399 51.7479 59.8397 52.06 59.8391 52.3722C59.8397 52.464 59.8404 52.5559 59.841 52.6505C59.8377 53.2759 59.8377 53.2759 59.5909 53.5188C59.3204 53.545 59.3204 53.545 58.976 53.5436C58.7831 53.5435 58.7831 53.5435 58.5863 53.5435C58.447 53.5424 58.3076 53.5413 58.164 53.5401C58.0217 53.5398 57.8794 53.5395 57.7328 53.5392C57.3544 53.5383 56.976 53.5362 56.5977 53.5338C56.2116 53.5315 55.8255 53.5305 55.4394 53.5294C54.6818 53.5271 53.9242 53.5233 53.1666 53.5188C53.1301 52.8712 53.0935 52.2236 53.0559 51.5563C52.8731 51.5203 52.6903 51.4843 52.502 51.4473C52.0033 51.9382 52.3196 52.8255 52.2805 53.5188C50.855 53.5188 49.4295 53.5188 47.9607 53.5188C47.9242 52.9072 47.8876 52.2955 47.85 51.6653C47.7253 51.5175 47.7253 51.5175 47.4 51.5495C47.2389 51.5529 47.2389 51.5529 47.0746 51.5563C46.7756 52.145 46.8948 52.8619 46.8531 53.5188C45.4276 53.5188 44.002 53.5188 42.5333 53.5188C42.4968 52.9072 42.4602 52.2955 42.4225 51.6653C41.9267 51.5492 41.9267 51.5492 41.6472 51.5563C41.6106 52.2039 41.5741 52.8516 41.5364 53.5188C39.6723 53.5188 37.8081 53.5188 35.8875 53.5188C35.9947 53.0968 36.0234 53.0172 36.3133 52.734C36.3804 52.6677 36.4474 52.6013 36.5165 52.533C36.5905 52.4615 36.6645 52.3901 36.7408 52.3164C36.8184 52.2401 36.896 52.1638 36.976 52.0852C37.2334 51.8326 37.492 51.5812 37.7506 51.3297C37.9299 51.1541 38.1092 50.9783 38.2884 50.8025C38.7612 50.339 39.2349 49.8764 39.7089 49.4141C40.4654 48.6759 41.2206 47.9363 41.9757 47.1966C42.2389 46.939 42.5025 46.6819 42.7662 46.4248C42.9293 46.2653 43.0924 46.1059 43.2555 45.9464C43.3281 45.8758 43.4008 45.8052 43.4756 45.7324C43.8186 45.3964 44.1487 45.0554 44.4647 44.6946C44.8877 44.2127 45.3404 43.7642 45.7993 43.3156C45.9354 43.1819 45.9354 43.1819 46.0742 43.0455C46.2697 42.8534 46.4654 42.6615 46.6612 42.4696C46.9716 42.1655 47.2817 41.861 47.5917 41.5564C48.3055 40.855 49.0199 40.1542 49.7344 39.4534C50.3898 38.8105 51.0451 38.1674 51.6999 37.5239C52.0566 37.1735 52.4137 36.8234 52.7709 36.4735C52.9587 36.289 53.1465 36.1045 53.3343 35.92C53.4183 35.8378 53.5023 35.7557 53.5889 35.671C54.0372 35.2299 54.4644 34.778 54.8782 34.3055C55.0971 34.0582 55.3275 33.8245 55.5629 33.5925C55.702 33.4551 55.702 33.4551 55.8439 33.3149C55.9413 33.2192 56.0387 33.1236 56.1391 33.025C56.241 32.9246 56.3429 32.8242 56.4479 32.7207C56.6616 32.5102 56.8755 32.2999 57.0896 32.0896C57.3645 31.8197 57.6389 31.5493 57.9131 31.2787C58.1753 31.0201 58.4379 30.7619 58.7005 30.5037C58.7992 30.4063 58.898 30.3089 58.9997 30.2085C59.0904 30.1196 59.181 30.0308 59.2744 29.9392C59.3544 29.8605 59.4345 29.7818 59.517 29.7007C59.7017 29.5327 59.7017 29.5327 59.8124 29.5327Z" fill="#FCFCFC"/>
<path d="M15.95 21.3555C16.2042 21.7307 16.1994 21.8671 16.1997 22.3087C16.2004 22.4401 16.201 22.5714 16.2017 22.7067C16.2013 22.8532 16.2009 22.9997 16.2004 23.1462C16.2008 23.3013 16.2012 23.4563 16.2017 23.6113C16.2028 24.0384 16.2026 24.4655 16.2021 24.8926C16.2019 25.3528 16.2029 25.813 16.2037 26.2732C16.2051 27.1752 16.2053 28.0772 16.205 28.9792C16.2048 29.7121 16.205 30.4451 16.2055 31.1781C16.2056 31.2823 16.2056 31.3865 16.2057 31.4938C16.2058 31.7054 16.206 31.9171 16.2061 32.1287C16.2073 34.1151 16.2071 36.1015 16.2064 38.0878C16.2058 39.9061 16.2071 41.7243 16.2092 43.5425C16.2113 45.4082 16.2122 47.2739 16.2118 49.1396C16.2116 50.1875 16.2119 51.2354 16.2134 52.2834C16.2148 53.1756 16.2149 54.0677 16.2136 54.9599C16.2129 55.4153 16.2128 55.8707 16.2141 56.3261C16.2153 56.7428 16.215 57.1594 16.2134 57.5761C16.2131 57.7271 16.2134 57.878 16.2143 58.0289C16.2154 58.2338 16.2143 58.4386 16.213 58.6435C16.2131 58.8143 16.2131 58.8143 16.2131 58.9886C16.1513 59.4478 15.9629 59.736 15.6116 60.0378C15.1296 60.2321 14.681 60.2097 14.1652 60.2013C14.0224 60.2008 14.0224 60.2008 13.8766 60.2003C13.5224 60.1986 13.1682 60.194 12.814 60.1898C11.6249 60.1796 11.6249 60.1796 10.4118 60.1693C10.4118 57.9746 10.4118 55.7799 10.4118 53.5186C10.9236 53.4826 11.4353 53.4467 11.9625 53.4096C11.9991 53.2297 12.0356 53.0498 12.0733 52.8645C11.8583 52.6528 11.4671 52.7119 11.1803 52.6941C10.9267 52.6784 10.6731 52.6626 10.4118 52.6464C10.4118 52.0348 10.4118 51.4231 10.4118 50.7929C10.6344 50.7863 10.857 50.7797 11.0864 50.7729C11.3012 50.7661 11.516 50.7593 11.7308 50.7523C11.8805 50.7476 12.0301 50.7431 12.1798 50.7387C12.3945 50.7324 12.6093 50.7254 12.824 50.7184C12.9533 50.7144 13.0827 50.7104 13.2159 50.7063C13.5041 50.7165 13.5041 50.7165 13.624 50.5749C13.624 50.359 13.624 50.1431 13.624 49.9207C12.564 49.8847 11.504 49.8488 10.4118 49.8117C10.4118 49.1641 10.4118 48.5164 10.4118 47.8492C10.6631 47.8334 10.9144 47.8177 11.1733 47.8015C11.6969 47.7856 11.6969 47.7856 12.184 47.6311C12.184 47.4153 12.184 47.1994 12.184 46.977C11.5992 46.941 11.0144 46.905 10.4118 46.8679C10.4118 46.2563 10.4118 45.6446 10.4118 45.0145C10.7438 45.0065 10.7438 45.0065 11.0825 44.9983C11.2966 44.9922 11.5106 44.9862 11.7247 44.9799C11.9469 44.9736 12.1691 44.9685 12.3913 44.9634C12.5305 44.9591 12.6697 44.9549 12.8132 44.9506C12.9419 44.9472 13.0707 44.9437 13.2034 44.9402C13.5283 44.9358 13.5283 44.9358 13.7347 44.6874C13.7026 44.3269 13.7026 44.3269 13.5132 44.0332C13.2838 44.0159 13.0539 44.0058 12.824 43.9987C12.6844 43.9942 12.5448 43.9896 12.401 43.9849C12.2526 43.9805 12.1041 43.9762 11.9556 43.9719C11.8067 43.9672 11.6578 43.9624 11.5089 43.9576C11.1432 43.946 10.7775 43.935 10.4118 43.9242C10.4118 43.2766 10.4118 42.6289 10.4118 41.9617C10.9967 41.9257 11.5815 41.8897 12.184 41.8527C12.184 41.6368 12.184 41.4209 12.184 41.1985C11.5992 41.1625 11.0144 41.1265 10.4118 41.0895C10.4118 40.4778 10.4118 39.8662 10.4118 39.236C10.6251 39.2307 10.8385 39.2253 11.0582 39.2198C11.3366 39.2116 11.6149 39.2034 11.8933 39.1951C12.1045 39.1901 12.1045 39.1901 12.3199 39.1849C12.4541 39.1807 12.5883 39.1765 12.7266 39.1721C12.8507 39.1687 12.9749 39.1653 13.1028 39.1617C13.4187 39.156 13.4187 39.156 13.624 38.9089C13.624 38.693 13.624 38.4772 13.624 38.2548C12.564 38.2188 11.504 38.1828 10.4118 38.1457C10.4118 37.4981 10.4118 36.8505 10.4118 36.1832C10.9967 36.1832 11.5815 36.1832 12.184 36.1832C12.184 35.9674 12.184 35.7515 12.184 35.5291C11.9645 35.313 11.5379 35.3753 11.2356 35.3587C10.9638 35.343 10.6919 35.3272 10.4118 35.311C10.4118 34.6994 10.4118 34.0877 10.4118 33.4575C12.0567 33.4036 12.0567 33.4036 13.7347 33.3485C13.7347 33.1326 13.7347 32.9168 13.7347 32.6943C13.5288 32.4916 13.1866 32.5591 12.9105 32.5508C12.7659 32.5463 12.6214 32.5417 12.4724 32.537C12.3186 32.5326 12.1648 32.5283 12.011 32.524C11.8567 32.5193 11.7025 32.5145 11.5482 32.5097C11.1695 32.4981 10.7906 32.4871 10.4118 32.4763C10.4118 31.7927 10.4118 31.1091 10.4118 30.4048C10.9236 30.3688 11.4353 30.3328 11.9625 30.2957C11.9991 30.1158 12.0356 29.9359 12.0733 29.7506C11.8583 29.539 11.4671 29.598 11.1803 29.5802C10.9267 29.5645 10.6731 29.5488 10.4118 29.5325C10.4118 28.9209 10.4118 28.3093 10.4118 27.6791C10.6411 27.6737 10.8704 27.6684 11.1067 27.6629C11.3285 27.6568 11.5503 27.6508 11.772 27.6445C11.9263 27.6403 12.0806 27.6365 12.2349 27.6331C12.4565 27.6281 12.6781 27.6217 12.8997 27.6152C13.0331 27.6118 13.1665 27.6083 13.304 27.6048C13.6379 27.6018 13.6379 27.6018 13.8455 27.352C13.8134 26.9915 13.8134 26.9915 13.624 26.6978C13.3865 26.6805 13.1485 26.6704 12.9105 26.6633C12.7659 26.6588 12.6214 26.6542 12.4724 26.6495C12.3186 26.6451 12.1648 26.6408 12.011 26.6365C11.8567 26.6318 11.7025 26.627 11.5482 26.6222C11.1694 26.6106 10.7906 26.5995 10.4118 26.5888C10.2916 25.2512 10.2916 25.2512 10.4118 24.9534C10.7421 24.6387 11.1269 24.4223 11.5195 24.1902C11.7478 24.0424 11.9757 23.8939 12.2031 23.7447C12.4458 23.5886 12.6887 23.4328 12.9317 23.2771C13.0593 23.1952 13.1868 23.1133 13.3143 23.0314C14.1905 22.469 15.0683 21.9093 15.95 21.3555Z" fill="#FCFCFC"/>
<path d="M10.0847 0.0256949C10.2607 0.0245661 10.4367 0.0233594 10.6127 0.0220798C10.9783 0.019981 11.3439 0.0195815 11.7095 0.0202914C12.175 0.020948 12.6401 0.0160975 13.1055 0.00983684C13.4678 0.00578379 13.83 0.00526967 14.1923 0.00572362C14.3638 0.00541343 14.5353 0.00390254 14.7068 0.00109249C15.8443 -0.0156118 16.5783 0.15422 17.5007 0.858308C18.6256 1.51364 19.8725 1.69154 21.1606 1.44902C21.8268 1.25931 22.2459 1.00326 22.7689 0.558482C23.5216 0.00733583 24.2294 0.00486099 25.1503 0.00652986C25.3501 0.00668797 25.3501 0.00668797 25.554 0.00684927C26.487 0.0341219 26.487 0.0341219 26.8399 0.257618C27.1141 0.660044 27.1044 1.02134 27.1124 1.49714C27.1147 1.59126 27.117 1.68537 27.1193 1.78233C27.123 1.98136 27.1254 2.18042 27.1267 2.37948C27.1302 2.68236 27.1425 2.9841 27.1551 3.28673C27.1854 4.69483 27.1854 4.69483 26.774 5.20557C26.4622 5.42891 26.154 5.59833 25.8079 5.76455C25.6698 5.86097 25.5337 5.96043 25.4012 6.06438C25.2325 6.18581 25.2325 6.18581 25.0603 6.30969C24.9466 6.39289 24.833 6.47609 24.7159 6.56182C24.3018 6.78081 24.0563 6.80762 23.5927 6.7458C23.3863 6.59802 23.3863 6.59802 23.2258 6.39827C22.5572 5.66772 21.5768 5.27865 20.5925 5.1879C19.5137 5.14336 18.5624 5.32011 17.6763 5.95663C16.7405 6.80709 16.2168 8.07453 16.1507 9.31745C16.149 10.0629 16.149 10.0629 16.165 10.808C16.2012 12.0216 16.2012 12.0216 15.8582 12.4504C15.6031 12.6483 15.348 12.8061 15.0639 12.9604C14.9394 13.0432 14.8155 13.127 14.6926 13.2121C14.573 13.2887 14.4533 13.3653 14.3301 13.4442C13.4417 14.0171 12.5731 14.6174 11.7056 15.2205C11.5475 15.3298 11.5475 15.3298 11.3862 15.4412C11.2917 15.5068 11.1973 15.5723 11.1001 15.6399C10.8548 15.7951 10.8548 15.7951 10.5226 15.9041C10.5219 15.7891 10.5219 15.7891 10.5213 15.6717C10.5171 14.9405 10.5108 14.2095 10.5022 13.4784C10.4979 13.1027 10.4943 12.7271 10.4925 12.3514C10.5588 9.22606 10.5588 9.22606 9.12027 6.5533C8.40119 5.88902 7.6 5.70221 6.63198 5.71004C6.54 5.71074 6.44802 5.71144 6.35326 5.71217C4.41755 5.76796 2.42164 6.93873 1.09682 8.29135C0.81653 8.60124 0.56633 8.90788 0.332291 9.25344C0.222635 9.25344 0.112979 9.25344 0 9.25344C0.115971 7.08452 1.32251 5.03578 2.65833 3.36594C2.77591 3.21795 2.77591 3.21795 2.89587 3.06697C4.72243 0.925461 7.31617 0.0255055 10.0847 0.0256949Z" fill="#FCFCFC"/>
<path d="M10.4118 25.1714C10.4118 25.6391 10.4118 26.1068 10.4118 26.5887C10.7538 26.5831 10.7538 26.5831 11.1027 26.5772C11.3238 26.575 11.5448 26.5727 11.7659 26.5708C11.9194 26.5691 12.0729 26.5669 12.2265 26.5641C12.4472 26.5601 12.668 26.5584 12.8888 26.5568C13.0216 26.5551 13.1545 26.5534 13.2913 26.5516C13.6239 26.5887 13.6239 26.5887 13.8373 26.7368C13.9562 26.9158 13.9562 26.9158 13.9354 27.1952C13.8454 27.461 13.8454 27.461 13.6239 27.679C13.3039 27.7038 13.3039 27.7038 12.8996 27.7003C12.6833 27.6993 12.6833 27.6993 12.4626 27.6982C12.3097 27.6964 12.1569 27.6945 12.004 27.6927C11.8502 27.6916 11.6965 27.6906 11.5428 27.6897C11.1657 27.6871 10.7887 27.6832 10.4118 27.679C10.4118 28.2907 10.4118 28.9023 10.4118 29.5325C10.7887 29.5257 10.7887 29.5257 11.1733 29.5189C11.6016 29.5112 11.6016 29.5112 11.9624 29.5325C12.0356 29.6045 12.1087 29.6764 12.184 29.7505C12.1224 30.2472 12.1224 30.2472 11.9624 30.4047C11.4454 30.4204 10.9292 30.4093 10.4118 30.4047C10.4118 31.0883 10.4118 31.7719 10.4118 32.4762C10.6411 32.4737 10.8704 32.4712 11.1066 32.4686C11.3284 32.4671 11.5502 32.4655 11.772 32.4643C11.9262 32.4632 12.0805 32.4617 12.2348 32.4598C12.4564 32.4571 12.678 32.456 12.8996 32.4549C13.0997 32.4532 13.0997 32.4532 13.3039 32.4515C13.6239 32.4762 13.6239 32.4762 13.8454 32.6943C13.8177 33.0282 13.8177 33.0282 13.7347 33.3485C13.4225 33.5021 13.1617 33.4697 12.8131 33.4681C12.6739 33.4678 12.5347 33.4674 12.3912 33.4671C12.2452 33.4662 12.0991 33.4652 11.9486 33.4643C11.8002 33.4638 11.6518 33.4633 11.5034 33.4628C11.1395 33.4615 10.7756 33.4596 10.4118 33.4575C10.4118 34.0691 10.4118 34.6808 10.4118 35.311C10.9486 35.3023 10.9486 35.3023 11.4854 35.2913C11.6814 35.2897 11.8775 35.3001 12.0732 35.311C12.1463 35.3829 12.2194 35.4549 12.2947 35.529C12.2582 35.7449 12.2216 35.9608 12.184 36.1832C11.5991 36.1832 11.0143 36.1832 10.4118 36.1832C10.4118 36.8308 10.4118 37.4784 10.4118 38.1457C10.6238 38.1419 10.8358 38.1381 11.0543 38.1342C11.3316 38.1311 11.609 38.1281 11.8863 38.1252C12.0262 38.1225 12.166 38.1198 12.3101 38.1169C12.444 38.1159 12.5778 38.1148 12.7157 38.1137C12.9011 38.1112 12.9011 38.1112 13.0901 38.1085C13.4024 38.1457 13.4024 38.1457 13.6127 38.2938C13.7347 38.4728 13.7347 38.4728 13.7139 38.7521C13.6239 39.0179 13.6239 39.0179 13.4024 39.236C13.1027 39.2607 13.1027 39.2607 12.7265 39.2572C12.5252 39.2562 12.5252 39.2562 12.3198 39.2551C12.179 39.2533 12.0383 39.2515 11.8932 39.2496C11.7516 39.2486 11.6099 39.2476 11.464 39.2466C11.1132 39.244 10.7625 39.2401 10.4118 39.236C10.4118 39.8476 10.4118 40.4592 10.4118 41.0894C10.99 41.0851 10.99 41.0851 11.5683 41.0796C11.7735 41.0788 11.9788 41.0839 12.184 41.0894C12.2947 41.1985 12.2947 41.1985 12.3086 41.5255C12.2947 41.8526 12.2947 41.8526 12.184 41.9616C11.8851 41.9696 11.5897 41.9717 11.2909 41.9685C11.0008 41.9662 10.7107 41.964 10.4118 41.9616C10.4118 42.6093 10.4118 43.2569 10.4118 43.9241C10.6318 43.9203 10.8518 43.9166 11.0785 43.9126C11.2919 43.9104 11.5052 43.9081 11.7186 43.9062C11.9395 43.9037 12.1605 43.8996 12.3815 43.8954C12.5898 43.8938 12.5898 43.8938 12.8023 43.8922C12.9945 43.8896 12.9945 43.8896 13.1907 43.887C13.5131 43.9241 13.5131 43.9241 13.725 44.0722C13.8454 44.2512 13.8454 44.2512 13.8247 44.5306C13.7347 44.7964 13.7347 44.7964 13.5131 45.0144C13.2033 45.0392 13.2033 45.0392 12.8131 45.0357C12.6043 45.0347 12.6043 45.0347 12.3912 45.0336C12.2452 45.0318 12.0991 45.0299 11.9486 45.028C11.8002 45.027 11.6518 45.026 11.5034 45.0251C11.1395 45.0225 10.7756 45.0186 10.4118 45.0144C10.4118 45.6261 10.4118 46.2377 10.4118 46.8679C10.99 46.8636 10.99 46.8636 11.5683 46.8581C11.7735 46.8573 11.9788 46.8624 12.184 46.8679C12.2947 46.9769 12.2947 46.9769 12.3224 47.2972C12.3133 47.4074 12.3042 47.5176 12.2947 47.6311C11.8808 47.9027 11.6585 47.8717 11.1663 47.8628C10.9173 47.8583 10.6683 47.8538 10.4118 47.8491C10.4118 48.4968 10.4118 49.1444 10.4118 49.8116C10.6423 49.8104 10.8729 49.8091 11.1105 49.8078C11.333 49.807 11.5555 49.8063 11.778 49.8056C11.9331 49.8051 12.0881 49.8044 12.2432 49.8034C12.4656 49.8021 12.688 49.8015 12.9104 49.801C13.1114 49.8001 13.1114 49.8001 13.3165 49.7993C13.6239 49.8116 13.6239 49.8116 13.7347 49.9207C13.7554 50.2409 13.7554 50.2409 13.7347 50.5748C13.5131 50.7929 13.5131 50.7929 13.2033 50.8176C13.0745 50.8165 12.9458 50.8154 12.8131 50.8142C12.6043 50.8131 12.6043 50.8131 12.3912 50.8121C12.2452 50.8102 12.0991 50.8084 11.9486 50.8065C11.8002 50.8054 11.6518 50.8044 11.5034 50.8035C11.1395 50.801 10.7756 50.797 10.4118 50.7929C10.4118 51.4045 10.4118 52.0162 10.4118 52.6464C10.663 52.6419 10.9143 52.6374 11.1733 52.6327C11.6016 52.6251 11.6016 52.6251 11.9624 52.6464C12.0356 52.7183 12.1087 52.7903 12.184 52.8644C12.1224 53.3611 12.1224 53.3611 11.9624 53.5186C11.4454 53.5343 10.9292 53.5232 10.4118 53.5186C10.4118 54.3101 10.4118 55.1017 10.4118 55.9172C9.41488 55.9172 9.41488 55.9172 9.18912 55.7311C9.07213 55.4565 9.04052 55.2668 9.03954 54.9695C9.0384 54.8665 9.03726 54.7635 9.03608 54.6574C9.03652 54.5445 9.03696 54.4317 9.03741 54.3155C9.03658 54.1954 9.03575 54.0752 9.03489 53.9515C9.03252 53.5475 9.03254 53.1436 9.03256 52.7397C9.03139 52.4507 9.03008 52.1616 9.02864 51.8726C9.02508 51.0864 9.024 50.3003 9.02336 49.5141C9.02295 49.0233 9.02197 48.5324 9.02087 48.0416C9.01789 46.6826 9.01539 45.3236 9.01513 43.9646C9.01511 43.8777 9.01509 43.7907 9.01507 43.7011C9.01504 43.5248 9.01501 43.3485 9.01498 43.1723C9.01496 43.0847 9.01495 42.9972 9.01493 42.9071C9.01491 42.8195 9.0149 42.7318 9.01488 42.6416C9.01454 41.2214 9.01048 39.8012 9.00478 38.3811C8.99897 36.9231 8.99606 35.4651 8.99612 34.0071C8.9961 33.1884 8.99485 32.3698 8.99045 31.5511C8.98673 30.8542 8.98568 30.1572 8.9881 29.4602C8.98926 29.1046 8.98874 28.7491 8.98569 28.3935C8.98259 28.0078 8.98424 27.6225 8.98711 27.2369C8.98508 27.1246 8.98305 27.0122 8.98096 26.8965C8.99346 26.1561 8.99346 26.1561 9.24989 25.8325C9.44501 25.6646 9.63846 25.5247 9.85794 25.3894C10.1902 25.1714 10.1902 25.1714 10.4118 25.1714Z" fill="#131313"/>
<path d="M27.4238 23.8118C27.5322 23.8114 27.5322 23.8114 27.6428 23.8111C27.8809 23.8108 28.1188 23.8137 28.3568 23.8166C28.5223 23.8171 28.6878 23.8175 28.8533 23.8177C29.1995 23.8185 29.5458 23.8208 29.892 23.8241C30.3368 23.8285 30.7815 23.8304 31.2263 23.8315C31.6497 23.8325 32.0731 23.8347 32.4966 23.837C32.5778 23.8374 32.659 23.8378 32.7427 23.8382C32.9713 23.8394 33.1998 23.8414 33.4284 23.8437C33.6238 23.8453 33.6238 23.8453 33.8231 23.847C34.1152 23.863 34.1152 23.863 34.226 23.972C34.237 24.1922 34.2402 24.4128 34.2403 24.6332C34.2407 24.7748 34.241 24.9163 34.2414 25.0621C34.2412 25.2178 34.2409 25.3734 34.2407 25.5291C34.2408 25.6876 34.2409 25.846 34.241 26.0045C34.2412 26.337 34.2409 26.6696 34.2404 27.0021C34.2398 27.4292 34.2401 27.8564 34.2408 28.2835C34.2412 28.6109 34.2411 28.9382 34.2408 29.2656C34.2407 29.4231 34.2408 29.5807 34.2411 29.7382C34.2413 29.958 34.2408 30.1778 34.2403 30.3976C34.2402 30.523 34.2401 30.6483 34.24 30.7774C34.226 31.0588 34.226 31.0588 34.1152 31.1679C33.8746 31.1787 33.6335 31.1818 33.3926 31.182C33.3172 31.1822 33.2417 31.1824 33.164 31.1826C32.9134 31.183 32.6628 31.1827 32.4122 31.1823C32.2388 31.1824 32.0654 31.1825 31.892 31.1827C31.5281 31.1828 31.1642 31.1826 30.8003 31.1821C30.3328 31.1815 29.8654 31.1818 29.3979 31.1825C29.0397 31.1829 28.6814 31.1827 28.3232 31.1825C28.1508 31.1824 27.9784 31.1825 27.806 31.1827C27.5654 31.183 27.3249 31.1826 27.0843 31.182C26.9471 31.1819 26.81 31.1818 26.6687 31.1817C26.3617 31.1679 26.3617 31.1679 26.251 31.0588C26.2383 30.8505 26.2333 30.6416 26.2314 30.4329C26.23 30.2989 26.2285 30.165 26.2271 30.027C26.2262 29.8796 26.2253 29.7322 26.2246 29.5848C26.2241 29.5109 26.2237 29.437 26.2232 29.3608C26.2209 28.9694 26.2193 28.5779 26.2183 28.1865C26.2171 27.7821 26.2133 27.3778 26.2089 26.9734C26.206 26.6626 26.205 26.3518 26.2046 26.0409C26.2041 25.8919 26.2028 25.7428 26.2008 25.5938C26.1981 25.385 26.1984 25.1762 26.1989 24.9674C26.1983 24.8486 26.1976 24.7298 26.197 24.6075C26.251 24.2991 26.251 24.2991 26.4302 24.0425C26.7795 23.8049 27.0008 23.8097 27.4238 23.8118Z" fill="#FC5A11"/>
<path d="M27.0843 32.7893C27.1598 32.7891 27.2353 32.7889 27.313 32.7887C27.5636 32.7882 27.8142 32.7886 28.0648 32.7889C28.2382 32.7889 28.4116 32.7888 28.585 32.7886C28.9489 32.7885 29.3128 32.7887 29.6767 32.7892C30.1442 32.7898 30.6116 32.7895 31.0791 32.7888C31.4373 32.7884 31.7955 32.7885 32.1538 32.7888C32.3262 32.7889 32.4986 32.7888 32.671 32.7886C32.9116 32.7883 33.1521 32.7887 33.3927 32.7893C33.5298 32.7894 33.667 32.7895 33.8083 32.7896C34.1152 32.8034 34.1152 32.8034 34.226 32.9124C34.2376 33.1287 34.2413 33.3453 34.2421 33.5619C34.2428 33.7009 34.2435 33.8399 34.2442 33.9831C34.2444 34.136 34.2445 34.2889 34.2446 34.4418C34.245 34.5976 34.2453 34.7533 34.2457 34.9091C34.2464 35.236 34.2466 35.563 34.2465 35.8899C34.2465 36.3095 34.248 36.729 34.2499 37.1486C34.2512 37.4704 34.2514 37.7923 34.2513 38.1141C34.2515 38.2688 34.2519 38.4235 34.2528 38.5782C34.2539 38.7944 34.2534 39.0105 34.2529 39.2267C34.2531 39.3498 34.2532 39.4729 34.2534 39.5998C34.226 39.8902 34.226 39.8902 34.0045 40.1083C33.7033 40.1374 33.7033 40.1374 33.3153 40.1399C33.0979 40.142 33.0979 40.142 32.8761 40.1442C32.7172 40.1445 32.5582 40.1447 32.3993 40.1449C32.2367 40.1456 32.0742 40.1463 31.9117 40.1471C31.5707 40.1484 31.2297 40.1488 30.8888 40.1487C30.4519 40.1487 30.0152 40.1516 29.5784 40.1554C29.2426 40.1578 28.9068 40.1583 28.571 40.1581C28.41 40.1584 28.249 40.1594 28.088 40.161C27.8626 40.1632 27.6373 40.1623 27.4119 40.1612C27.2837 40.1615 27.1555 40.1619 27.0234 40.1622C26.6941 40.1083 26.6941 40.1083 26.4309 39.9287C26.1998 39.5992 26.1968 39.4027 26.1989 39.0039C26.1986 38.8689 26.1983 38.734 26.198 38.5949C26.1999 38.4482 26.2018 38.3014 26.2038 38.1547C26.2044 38.004 26.2048 37.8534 26.2049 37.7027C26.2058 37.3875 26.2081 37.0724 26.2115 36.7572C26.2159 36.3524 26.2179 35.9477 26.219 35.5429C26.2201 35.1574 26.2223 34.7719 26.2246 34.3864C26.225 34.3125 26.2254 34.2386 26.2258 34.1625C26.227 33.9545 26.2292 33.7464 26.2314 33.5384C26.2325 33.4199 26.2336 33.3014 26.2347 33.1792C26.2671 32.6483 26.6182 32.7896 27.0843 32.7893Z" fill="#FC5A11"/>
<path d="M36.6867 23.8457C36.7586 23.8452 36.8305 23.8447 36.9045 23.8441C37.1432 23.8425 37.382 23.8418 37.6207 23.8412C37.7861 23.8405 37.9516 23.8399 38.117 23.8393C38.4643 23.8381 38.8116 23.8375 39.159 23.8371C39.6043 23.8365 40.0497 23.8339 40.495 23.8308C40.8369 23.8288 41.1788 23.8282 41.5207 23.828C41.6849 23.8277 41.8491 23.8268 42.0132 23.8254C42.2429 23.8235 42.4725 23.8237 42.7022 23.8244C42.8983 23.8239 42.8983 23.8239 43.0984 23.8232C43.4194 23.8633 43.4194 23.8633 43.6279 23.9877C43.8078 24.2823 43.7923 24.5138 43.7911 24.8563C43.7915 24.9935 43.7918 25.1306 43.7921 25.2719C43.7908 25.4216 43.7894 25.5713 43.788 25.721C43.7877 25.8743 43.7875 26.0276 43.7874 26.1808C43.7869 26.5018 43.7853 26.8228 43.7828 27.1437C43.7797 27.556 43.7785 27.9682 43.778 28.3804C43.7775 28.6967 43.7764 29.013 43.7751 29.3294C43.7745 29.4814 43.7739 29.6335 43.7735 29.7855C43.7728 29.9975 43.7712 30.2095 43.7695 30.4214C43.7687 30.5422 43.768 30.663 43.7672 30.7875C43.7517 31.0591 43.7517 31.0591 43.6409 31.1682C43.4036 31.179 43.166 31.1821 42.9285 31.1823C42.8169 31.1826 42.8169 31.1826 42.7031 31.1828C42.4561 31.1833 42.2091 31.183 41.9621 31.1826C41.7912 31.1827 41.6203 31.1828 41.4493 31.183C41.0907 31.1831 40.732 31.1829 40.3733 31.1824C39.9125 31.1818 39.4518 31.1821 38.991 31.1828C38.6379 31.1832 38.2848 31.183 37.9317 31.1828C37.7618 31.1827 37.5919 31.1828 37.4219 31.183C37.1848 31.1833 36.9477 31.1829 36.7106 31.1823C36.5078 31.1821 36.5078 31.1821 36.3009 31.182C35.9982 31.1682 35.9982 31.1682 35.8874 31.0591C35.8764 30.839 35.8733 30.6184 35.8731 30.3979C35.8727 30.2564 35.8724 30.1149 35.872 29.9691C35.8722 29.8134 35.8725 29.6577 35.8727 29.5021C35.8726 29.3436 35.8725 29.1851 35.8724 29.0267C35.8722 28.6941 35.8725 28.3616 35.873 28.0291C35.8736 27.6019 35.8733 27.1748 35.8726 26.7477C35.8722 26.4203 35.8723 26.093 35.8726 25.7656C35.8727 25.6081 35.8726 25.4505 35.8723 25.293C35.8721 25.0732 35.8726 24.8533 35.8731 24.6335C35.8732 24.5082 35.8733 24.3829 35.8734 24.2538C35.9001 23.7192 36.2108 23.8485 36.6867 23.8457Z" fill="#FC5A11"/>
<path d="M36.7106 32.7895C36.8222 32.7892 36.8222 32.7892 36.936 32.7889C37.183 32.7884 37.43 32.7887 37.677 32.7891C37.8479 32.789 38.0188 32.7889 38.1897 32.7888C38.5484 32.7886 38.9071 32.7889 39.2658 32.7894C39.7265 32.79 40.1873 32.7896 40.6481 32.789C41.0012 32.7886 41.3543 32.7887 41.7073 32.789C41.8773 32.7891 42.0472 32.789 42.2172 32.7887C42.4543 32.7884 42.6914 32.7889 42.9285 32.7895C43.1313 32.7896 43.1313 32.7896 43.3382 32.7897C43.6409 32.8036 43.6409 32.8036 43.7517 32.9126C43.7644 33.121 43.7693 33.3298 43.7713 33.5386C43.7734 33.7395 43.7734 33.7395 43.7756 33.9444C43.7765 34.0918 43.7773 34.2392 43.778 34.3866C43.7785 34.4605 43.779 34.5345 43.7794 34.6107C43.7817 35.0021 43.7833 35.3935 43.7843 35.7849C43.7856 36.1894 43.7894 36.5937 43.7938 36.9981C43.7967 37.3089 43.7976 37.6197 43.798 37.9305C43.7985 38.0796 43.7998 38.2286 43.8019 38.3777C43.8046 38.5864 43.8042 38.7952 43.8037 39.004C43.8044 39.1228 43.805 39.2416 43.8057 39.364C43.7517 39.6723 43.7517 39.6723 43.5718 39.9289C43.2254 40.1651 43.0088 40.1618 42.589 40.1597C42.443 40.16 42.297 40.1603 42.1467 40.1606C41.9878 40.1588 41.8289 40.1568 41.6701 40.1549C41.5071 40.1543 41.3441 40.154 41.1811 40.1538C40.84 40.1529 40.499 40.1507 40.1579 40.1473C39.7199 40.143 39.2819 40.141 38.8438 40.14C38.4267 40.1389 38.0097 40.1367 37.5926 40.1344C37.5126 40.134 37.4326 40.1337 37.3502 40.1333C37.1251 40.132 36.8999 40.1299 36.6748 40.1277C36.4824 40.1261 36.4824 40.1261 36.2861 40.1245C35.9982 40.1084 35.9982 40.1084 35.8874 39.9994C35.8764 39.7792 35.8733 39.5587 35.8731 39.3382C35.8727 39.1967 35.8724 39.0552 35.872 38.9094C35.8722 38.7537 35.8725 38.598 35.8727 38.4424C35.8726 38.2839 35.8725 38.1254 35.8724 37.9669C35.8722 37.6344 35.8725 37.3019 35.873 36.9694C35.8736 36.5422 35.8733 36.1151 35.8726 35.6879C35.8722 35.3606 35.8723 35.0332 35.8726 34.7059C35.8727 34.5483 35.8726 34.3908 35.8723 34.2333C35.8721 34.0134 35.8726 33.7936 35.8731 33.5738C35.8732 33.4485 35.8733 33.3232 35.8734 33.194C35.9005 32.6515 36.2302 32.7898 36.7106 32.7895Z" fill="#FC5A11"/>
<path d="M55.0496 40.6533C55.1227 40.6533 55.1958 40.6533 55.2711 40.6533C55.2711 43.6756 55.2711 46.6978 55.2711 49.8116C52.2007 49.8116 49.1304 49.8116 45.9669 49.8116C46.0893 49.4503 46.1748 49.3788 46.4654 49.1438C47.1307 48.5874 47.7451 47.9899 48.3118 47.3362C48.7102 46.8871 49.1381 46.4827 49.5841 46.08C50.6129 45.1384 51.6086 44.166 52.6006 43.1871C52.8951 42.8966 53.1903 42.6067 53.4855 42.3168C53.6734 42.1318 53.8614 41.9466 54.0492 41.7615C54.1373 41.6751 54.2253 41.5887 54.3159 41.4996C54.4365 41.3804 54.4365 41.3804 54.5596 41.2588C54.6304 41.189 54.7012 41.1192 54.7742 41.0473C54.9487 40.8771 54.9487 40.8771 55.0496 40.6533Z" fill="#FCFCFC"/>
<path d="M59.8125 29.5327C59.8176 32.6279 59.8215 35.7231 59.8239 38.8183C59.8251 40.2554 59.8266 41.6924 59.8292 43.1295C59.8314 44.3816 59.8328 45.6337 59.8333 46.8858C59.8336 47.5492 59.8343 48.2126 59.8359 48.8759C59.8374 49.4997 59.8378 50.1234 59.8375 50.7471C59.8376 50.9767 59.838 51.2062 59.8389 51.4357C59.84 51.7479 59.8397 52.06 59.8391 52.3722C59.8397 52.464 59.8404 52.5559 59.841 52.6505C59.8377 53.2759 59.8377 53.2759 59.5909 53.5188C59.3204 53.545 59.3204 53.545 58.976 53.5436C58.7831 53.5435 58.7831 53.5435 58.5863 53.5435C58.447 53.5424 58.3076 53.5413 58.164 53.5401C58.0217 53.5398 57.8794 53.5395 57.7328 53.5392C57.3544 53.5383 56.976 53.5362 56.5977 53.5338C56.2116 53.5315 55.8255 53.5305 55.4394 53.5294C54.6818 53.5271 53.9242 53.5234 53.1666 53.5188C53.2215 53.4109 53.2215 53.4109 53.2774 53.3007C55.3243 53.3007 57.3712 53.3007 59.4802 53.3007C59.4802 45.6372 59.4802 37.9736 59.4802 30.0779C59.2243 30.3297 58.9684 30.5816 58.7048 30.841C58.7048 30.514 58.7048 30.514 58.919 30.2674C59.0105 30.1801 59.102 30.0928 59.1963 30.0029C59.2876 29.9148 59.3788 29.8267 59.4728 29.7359C59.7017 29.5327 59.7017 29.5327 59.8125 29.5327Z" fill="#FCFCFC"/>
<path d="M41.6472 47.522C41.6472 47.8491 41.6472 47.8491 41.4412 48.0912C41.3447 48.1854 41.2483 48.2796 41.149 48.3766C41.0696 48.4548 41.0696 48.4548 40.9886 48.5346C40.8131 48.7071 40.6366 48.8784 40.4599 49.0496C40.3382 49.1689 40.2165 49.2882 40.0949 49.4076C39.7744 49.7218 39.4529 50.035 39.1312 50.348C38.7456 50.7237 38.3612 51.1006 37.9765 51.4773C37.3919 52.0496 36.8057 52.6203 36.2198 53.1914C38.7967 53.2454 38.7967 53.2454 41.4257 53.3004C41.4257 52.7608 41.4257 52.2211 41.4257 51.665C41.4622 51.665 41.4988 51.665 41.5364 51.665C41.5364 52.2767 41.5364 52.8883 41.5364 53.5185C39.6723 53.5185 37.8081 53.5185 35.8875 53.5185C36.0151 53.0159 36.1609 52.8824 36.5294 52.5224C36.5845 52.4681 36.6396 52.4138 36.6964 52.3579C36.8784 52.179 37.0616 52.0012 37.2448 51.8235C37.3713 51.6995 37.4978 51.5754 37.6242 51.4513C37.9569 51.1251 38.2906 50.7999 38.6245 50.4748C38.9651 50.1429 39.3048 49.81 39.6446 49.4772C40.3112 48.8246 40.9789 48.1729 41.6472 47.522Z" fill="#FCFCFC"/>
<path d="M299.876 29.0317C298.049 29.0317 296.431 28.5948 295.02 27.7209C293.63 26.8272 292.538 25.5859 291.743 23.997C290.949 22.3883 290.552 20.5214 290.552 18.3963C290.552 16.2513 290.969 14.3645 291.803 12.7359C292.657 11.0875 293.859 9.79654 295.408 8.86308C296.977 7.92962 298.854 7.46289 301.038 7.46289C303.501 7.46289 305.537 8.04878 307.145 9.22057C308.774 10.3924 309.827 12.0209 310.303 14.1063H305.805C305.507 13.1927 304.951 12.4777 304.137 11.9614C303.322 11.4251 302.28 11.157 301.008 11.157C299.658 11.157 298.506 11.4549 297.553 12.0507C296.599 12.6466 295.874 13.4807 295.378 14.5532C294.901 15.6257 294.663 16.9067 294.663 18.3963C294.663 19.9057 294.901 21.1867 295.378 22.2393C295.874 23.292 296.58 24.0963 297.493 24.6524C298.427 25.1887 299.519 25.4568 300.77 25.4568C302.597 25.4568 303.978 24.9702 304.911 23.997C305.864 23.004 306.43 21.723 306.609 20.154H301.485V17.145H310.661V28.6743H306.997L306.669 25.1589H306.55C306.093 25.9732 305.537 26.6782 304.881 27.2741C304.226 27.85 303.471 28.287 302.617 28.5849C301.783 28.8828 300.869 29.0317 299.876 29.0317Z" fill="#FCFCFC"/>
<path d="M270.543 28.6742V7.82031H275.518L284.038 23.282H284.157V7.82031H288.179V28.6742H283.204L274.684 13.2423H274.565V28.6742H270.543Z" fill="#FCFCFC"/>
<path d="M263.851 28.6742V7.82031H267.873V28.6742H263.851Z" fill="#FCFCFC"/>
<path d="M243.544 28.6742V7.82031H250.784C253.207 7.82031 255.213 8.25725 256.802 9.13113C258.39 9.98514 259.562 11.1967 260.317 12.7657C261.091 14.3148 261.479 16.142 261.479 18.2472C261.479 20.3525 261.091 22.1896 260.317 23.7586C259.562 25.3078 258.39 26.5193 256.802 27.3932C255.233 28.2472 253.227 28.6742 250.784 28.6742H243.544ZM247.566 25.2184H250.575C252.283 25.2184 253.634 24.9403 254.627 24.3842C255.62 23.8281 256.325 23.0337 256.742 22.0009C257.159 20.9483 257.368 19.6971 257.368 18.2472C257.368 16.7775 257.159 15.5263 256.742 14.4936C256.325 13.4409 255.62 12.6366 254.627 12.0805C253.634 11.5244 252.283 11.2463 250.575 11.2463H247.566V25.2184Z" fill="#FCFCFC"/>
<path d="M228.591 28.6742V7.82031H232.612V25.5461H241.758V28.6742H228.591Z" fill="#FCFCFC"/>
<path d="M215.708 29.0317C213.642 29.0317 211.825 28.5749 210.256 27.6614C208.707 26.7478 207.485 25.4866 206.592 23.8779C205.698 22.2493 205.251 20.3724 205.251 18.2473C205.251 16.1222 205.698 14.2553 206.592 12.6466C207.485 11.018 208.707 9.74689 210.256 8.83329C211.825 7.91969 213.642 7.46289 215.708 7.46289C217.793 7.46289 219.62 7.91969 221.189 8.83329C222.778 9.74689 224.01 11.018 224.883 12.6466C225.757 14.2553 226.194 16.1222 226.194 18.2473C226.194 20.3724 225.757 22.2493 224.883 23.8779C224.01 25.4866 222.778 26.7478 221.189 27.6614C219.62 28.5749 217.793 29.0317 215.708 29.0317ZM215.708 25.427C217.019 25.427 218.151 25.139 219.104 24.5631C220.057 23.9672 220.792 23.1331 221.309 22.0606C221.825 20.9881 222.083 19.717 222.083 18.2473C222.083 16.7578 221.825 15.4867 221.309 14.434C220.792 13.3616 220.057 12.5373 219.104 11.9614C218.151 11.3854 217.019 11.0974 215.708 11.0974C214.437 11.0974 213.324 11.3854 212.371 11.9614C211.418 12.5373 210.673 13.3616 210.137 14.434C209.62 15.4867 209.362 16.7578 209.362 18.2473C209.362 19.717 209.62 20.9881 210.137 22.0606C210.673 23.1331 211.418 23.9672 212.371 24.5631C213.324 25.139 214.437 25.427 215.708 25.427Z" fill="#FCFCFC"/>
<path d="M198.845 28.6742V7.82031H202.867V28.6742H198.845ZM185.708 28.6742V7.82031H189.729V28.6742H185.708ZM189.193 19.6474V16.4002H199.531V19.6474H189.193Z" fill="#FCFCFC"/>
<path d="M162.549 28.6742V7.82031H170.355C172.023 7.82031 173.403 8.10829 174.496 8.68426C175.608 9.26022 176.432 10.0348 176.968 11.008C177.505 11.9613 177.773 13.0238 177.773 14.1956C177.773 15.3078 177.505 16.3505 176.968 17.3237C176.452 18.277 175.638 19.0516 174.526 19.6474C173.433 20.2234 172.023 20.5114 170.295 20.5114H166.571V28.6742H162.549ZM173.364 28.6742L169.074 19.4985H173.423L177.952 28.6742H173.364ZM166.571 17.5918H170.087C171.318 17.5918 172.222 17.2939 172.798 16.6981C173.374 16.1023 173.662 15.3178 173.662 14.3446C173.662 13.3714 173.374 12.6068 172.798 12.0507C172.222 11.4747 171.318 11.1867 170.087 11.1867H166.571V17.5918Z" fill="#FCFCFC"/>
<path d="M146.577 28.6742V7.82031H160.311V11.0676H150.599V16.5194H159.417V19.6474H150.599V25.4269H160.311V28.6742H146.577Z" fill="#FCFCFC"/>
<path d="M121.412 28.6742V7.82031H126.715L132.643 21.6434H132.762L138.631 7.82031H143.904V28.6742H139.883V14.1361H139.763L134.699 25.6951H130.558L125.553 14.1361H125.434V28.6742H121.412Z" fill="#FCFCFC"/>
<path d="M108.529 29.0317C106.464 29.0317 104.646 28.5749 103.077 27.6614C101.528 26.7478 100.307 25.4866 99.413 23.8779C98.5193 22.2493 98.0724 20.3724 98.0724 18.2473C98.0724 16.1222 98.5193 14.2553 99.413 12.6466C100.307 11.018 101.528 9.74689 103.077 8.83329C104.646 7.91969 106.464 7.46289 108.529 7.46289C110.615 7.46289 112.442 7.91969 114.011 8.83329C115.6 9.74689 116.831 11.018 117.705 12.6466C118.579 14.2553 119.016 16.1222 119.016 18.2473C119.016 20.3724 118.579 22.2493 117.705 23.8779C116.831 25.4866 115.6 26.7478 114.011 27.6614C112.442 28.5749 110.615 29.0317 108.529 29.0317ZM108.529 25.427C109.84 25.427 110.972 25.139 111.925 24.5631C112.879 23.9672 113.614 23.1331 114.13 22.0606C114.646 20.9881 114.904 19.717 114.904 18.2473C114.904 16.7578 114.646 15.4867 114.13 14.434C113.614 13.3616 112.879 12.5373 111.925 11.9614C110.972 11.3854 109.84 11.0974 108.529 11.0974C107.258 11.0974 106.146 11.3854 105.193 11.9614C104.239 12.5373 103.494 13.3616 102.958 14.434C102.442 15.4867 102.184 16.7578 102.184 18.2473C102.184 19.717 102.442 20.9881 102.958 22.0606C103.494 23.1331 104.239 23.9672 105.193 24.5631C106.146 25.139 107.258 25.427 108.529 25.427Z" fill="#FCFCFC"/>
<path d="M81.1764 28.6742V7.82031H88.9817C90.65 7.82031 92.0303 8.10829 93.1227 8.68426C94.2349 9.26022 95.0591 10.0348 95.5954 11.008C96.1316 11.9613 96.3997 13.0238 96.3997 14.1956C96.3997 15.3078 96.1316 16.3505 95.5954 17.3237C95.079 18.277 94.2647 19.0516 93.1525 19.6474C92.0601 20.2234 90.65 20.5114 88.9221 20.5114H85.1982V28.6742H81.1764ZM91.9906 28.6742L87.7007 19.4985H92.0502L96.5785 28.6742H91.9906ZM85.1982 17.5918H88.7136C89.9449 17.5918 90.8486 17.2939 91.4246 16.6981C92.0005 16.1023 92.2885 15.3178 92.2885 14.3446C92.2885 13.3714 92.0005 12.6068 91.4246 12.0507C90.8486 11.4747 89.9449 11.1867 88.7136 11.1867H85.1982V17.5918Z" fill="#FCFCFC"/>
<path d="M299.159 52.5073V39.4736H300.462L307.668 50.3288V39.4736H308.972V52.5073H307.668L300.462 41.6335V52.5073H299.159Z" fill="#FCFCFC"/>
<path d="M282.114 52.7305C280.873 52.7305 279.78 52.4512 278.837 51.8927C277.894 51.3217 277.155 50.5334 276.621 49.528C276.1 48.5101 275.839 47.3309 275.839 45.9903C275.839 44.6621 276.1 43.4953 276.621 42.4898C277.155 41.4719 277.894 40.6775 278.837 40.1065C279.78 39.5355 280.873 39.25 282.114 39.25C283.393 39.25 284.504 39.5355 285.447 40.1065C286.39 40.6775 287.117 41.4719 287.625 42.4898C288.147 43.4953 288.407 44.6621 288.407 45.9903C288.407 47.3309 288.147 48.5101 287.625 49.528C287.117 50.5334 286.39 51.3217 285.447 51.8927C284.504 52.4512 283.393 52.7305 282.114 52.7305ZM282.133 51.5947C283.113 51.5947 283.976 51.3713 284.721 50.9244C285.466 50.4776 286.043 49.8383 286.452 49.0066C286.862 48.1625 287.067 47.1571 287.067 45.9903C287.067 44.8234 286.862 43.8242 286.452 42.9925C286.043 42.1609 285.466 41.5216 284.721 41.0747C283.976 40.6278 283.113 40.4044 282.133 40.4044C281.152 40.4044 280.289 40.6278 279.545 41.0747C278.8 41.5216 278.216 42.1609 277.794 42.9925C277.385 43.8242 277.18 44.8234 277.18 45.9903C277.18 47.1571 277.385 48.1625 277.794 49.0066C278.216 49.8383 278.8 50.4776 279.545 50.9244C280.289 51.3713 281.152 51.5947 282.133 51.5947Z" fill="#FCFCFC"/>
<path d="M263.8 52.5073V39.4736H265.103V52.5073H263.8Z" fill="#FCFCFC"/>
<path d="M248.183 52.5073V40.5536H244.273V39.4736H253.396V40.5536H249.486V52.5073H248.183Z" fill="#FCFCFC"/>
<path d="M229.445 52.7305C228.191 52.7305 227.105 52.4512 226.187 51.8927C225.268 51.3217 224.56 50.5334 224.064 49.528C223.567 48.5101 223.319 47.3309 223.319 45.9903C223.319 44.6497 223.567 43.4766 224.064 42.4712C224.56 41.4533 225.268 40.6651 226.187 40.1065C227.118 39.5355 228.204 39.25 229.445 39.25C230.91 39.25 232.095 39.5976 233.001 40.2927C233.92 40.9754 234.509 41.9436 234.77 43.1973H233.336C233.138 42.3533 232.716 41.6767 232.07 41.1678C231.425 40.6465 230.55 40.3858 229.445 40.3858C228.489 40.3858 227.651 40.6092 226.931 41.0561C226.211 41.503 225.653 42.1484 225.256 42.9925C224.858 43.8242 224.66 44.8234 224.66 45.9903C224.66 47.1571 224.858 48.1625 225.256 49.0066C225.653 49.8383 226.211 50.4776 226.931 50.9244C227.651 51.3713 228.489 51.5947 229.445 51.5947C230.55 51.5947 231.419 51.3403 232.052 50.8313C232.697 50.3224 233.125 49.6521 233.336 48.8204H234.77C234.497 50.0493 233.907 51.0113 233.001 51.7065C232.108 52.3892 230.922 52.7305 229.445 52.7305Z" fill="#FCFCFC"/>
<path d="M207.987 52.7307C207.106 52.7307 206.305 52.557 205.585 52.2094C204.878 51.8618 204.313 51.3219 203.891 50.5895C203.469 49.8447 203.258 48.9013 203.258 47.7593V39.4736H204.561V47.7779C204.561 48.6593 204.704 49.3854 204.989 49.9564C205.287 50.515 205.697 50.9246 206.218 51.1853C206.74 51.446 207.335 51.5763 208.006 51.5763C208.688 51.5763 209.284 51.446 209.793 51.1853C210.302 50.9246 210.699 50.515 210.985 49.9564C211.27 49.3854 211.413 48.6593 211.413 47.7779V39.4736H212.716V47.7593C212.716 48.9013 212.505 49.8447 212.083 50.5895C211.661 51.3219 211.09 51.8618 210.37 52.2094C209.663 52.557 208.868 52.7307 207.987 52.7307Z" fill="#FCFCFC"/>
<path d="M184.1 52.5073V39.4736H188.122C189.127 39.4736 189.946 39.6412 190.579 39.9764C191.225 40.3115 191.697 40.7646 191.995 41.3356C192.292 41.8942 192.441 42.5334 192.441 43.2534C192.441 43.9485 192.286 44.5878 191.976 45.1712C191.666 45.7422 191.188 46.2015 190.542 46.5491C189.897 46.8842 189.059 47.0518 188.029 47.0518H185.403V52.5073H184.1ZM191.026 52.5073L188.103 46.6421H189.593L192.59 52.5073H191.026ZM185.403 45.9905H188.029C189.084 45.9905 189.859 45.736 190.356 45.2271C190.853 44.7181 191.101 44.0602 191.101 43.2534C191.101 42.4217 190.859 41.77 190.375 41.2983C189.891 40.8142 189.102 40.5722 188.01 40.5722H185.403V45.9905Z" fill="#FCFCFC"/>
<path d="M168.483 52.5073V40.5536H164.573V39.4736H173.696V40.5536H169.786V52.5073H168.483Z" fill="#FCFCFC"/>
<path d="M150.764 52.7305C149.808 52.7305 148.976 52.5568 148.269 52.2092C147.573 51.8616 147.04 51.3775 146.667 50.7569C146.295 50.1238 146.109 49.4038 146.109 48.597H147.468C147.468 49.1432 147.592 49.6459 147.84 50.1052C148.089 50.5645 148.455 50.9369 148.939 51.2224C149.423 51.4954 150.031 51.632 150.764 51.632C151.409 51.632 151.949 51.5265 152.383 51.3155C152.83 51.092 153.172 50.8003 153.407 50.4403C153.643 50.0804 153.761 49.6707 153.761 49.2114C153.761 48.6653 153.643 48.2246 153.407 47.8895C153.184 47.5543 152.874 47.2812 152.477 47.0702C152.079 46.8592 151.626 46.6792 151.117 46.5302C150.621 46.3689 150.093 46.1951 149.535 46.0089C148.529 45.6613 147.791 45.2331 147.319 44.7241C146.847 44.2152 146.605 43.5635 146.593 42.7691C146.593 42.0864 146.748 41.4843 147.058 40.963C147.381 40.4292 147.846 40.0134 148.455 39.7155C149.063 39.4052 149.783 39.25 150.615 39.25C151.421 39.25 152.123 39.4052 152.719 39.7155C153.327 40.0134 153.799 40.4354 154.134 40.9816C154.469 41.5154 154.636 42.1298 154.636 42.8249H153.296C153.296 42.4277 153.19 42.0429 152.979 41.6705C152.781 41.2857 152.477 40.9754 152.067 40.7396C151.67 40.4913 151.161 40.3672 150.54 40.3672C150.031 40.3672 149.578 40.4603 149.181 40.6465C148.796 40.8202 148.492 41.0809 148.269 41.4285C148.045 41.7636 147.933 42.1609 147.933 42.6201C147.933 43.067 148.033 43.4332 148.231 43.7187C148.43 44.0042 148.709 44.24 149.069 44.4262C149.429 44.6124 149.851 44.7862 150.335 44.9476C150.819 45.0965 151.359 45.2703 151.955 45.4689C152.563 45.6799 153.103 45.9344 153.575 46.2323C154.047 46.5302 154.419 46.915 154.692 47.3867C154.965 47.846 155.102 48.4294 155.102 49.137C155.102 49.7452 154.941 50.3286 154.618 50.8872C154.307 51.4334 153.83 51.8802 153.184 52.2278C152.539 52.563 151.732 52.7305 150.764 52.7305Z" fill="#FCFCFC"/>
<path d="M125.616 52.5073V39.4736H126.919L134.125 50.3288V39.4736H135.428V52.5073H134.125L126.919 41.6335V52.5073H125.616Z" fill="#FCFCFC"/>
<path d="M108.571 52.7305C107.329 52.7305 106.237 52.4512 105.294 51.8927C104.35 51.3217 103.612 50.5334 103.078 49.528C102.557 48.5101 102.296 47.3309 102.296 45.9903C102.296 44.6621 102.557 43.4953 103.078 42.4898C103.612 41.4719 104.35 40.6775 105.294 40.1065C106.237 39.5355 107.329 39.25 108.571 39.25C109.849 39.25 110.96 39.5355 111.904 40.1065C112.847 40.6775 113.573 41.4719 114.082 42.4898C114.603 43.4953 114.864 44.6621 114.864 45.9903C114.864 47.3309 114.603 48.5101 114.082 49.528C113.573 50.5334 112.847 51.3217 111.904 51.8927C110.96 52.4512 109.849 52.7305 108.571 52.7305ZM108.589 51.5947C109.57 51.5947 110.433 51.3713 111.177 50.9244C111.922 50.4776 112.499 49.8383 112.909 49.0066C113.319 48.1625 113.523 47.1571 113.523 45.9903C113.523 44.8234 113.319 43.8242 112.909 42.9925C112.499 42.1609 111.922 41.5216 111.177 41.0747C110.433 40.6278 109.57 40.4044 108.589 40.4044C107.609 40.4044 106.746 40.6278 106.001 41.0747C105.256 41.5216 104.673 42.1609 104.251 42.9925C103.841 43.8242 103.636 44.8234 103.636 45.9903C103.636 47.1571 103.841 48.1625 104.251 49.0066C104.673 49.8383 105.256 50.4776 106.001 50.9244C106.746 51.3713 107.609 51.5947 108.589 51.5947Z" fill="#FCFCFC"/>
<path d="M86.7692 52.7305C85.5155 52.7305 84.4294 52.4512 83.5108 51.8927C82.5922 51.3217 81.8847 50.5334 81.3882 49.528C80.8917 48.5101 80.6434 47.3309 80.6434 45.9903C80.6434 44.6497 80.8917 43.4766 81.3882 42.4712C81.8847 41.4533 82.5922 40.6651 83.5108 40.1065C84.4418 39.5355 85.5279 39.25 86.7692 39.25C88.234 39.25 89.4194 39.5976 90.3256 40.2927C91.2441 40.9754 91.8337 41.9436 92.0944 43.1973H90.6607C90.4621 42.3533 90.0401 41.6767 89.3946 41.1678C88.7491 40.6465 87.874 40.3858 86.7692 40.3858C85.8134 40.3858 84.9755 40.6092 84.2556 41.0561C83.5356 41.503 82.977 42.1484 82.5798 42.9925C82.1826 43.8242 81.984 44.8234 81.984 45.9903C81.984 47.1571 82.1826 48.1625 82.5798 49.0066C82.977 49.8383 83.5356 50.4776 84.2556 50.9244C84.9755 51.3713 85.8134 51.5947 86.7692 51.5947C87.874 51.5947 88.7429 51.3403 89.376 50.8313C90.0214 50.3224 90.4497 49.6521 90.6607 48.8204H92.0944C91.8213 50.0493 91.2317 51.0113 90.3256 51.7065C89.4318 52.3892 88.2464 52.7305 86.7692 52.7305Z" fill="#FCFCFC"/>
</svg>
