<svg width="311" height="66" viewBox="0 0 311 66" fill="none" xmlns="http://www.w3.org/2000/svg">
<path d="M35.7767 2.76866C36.2287 2.96003 36.6003 3.24517 36.9951 3.53185C37.2313 3.69237 37.469 3.8508 37.7066 4.0093C37.9794 4.19153 38.2512 4.37513 38.5228 4.55909C39.1064 4.95408 39.6912 5.3471 40.2764 5.73966C40.3771 5.80717 40.4777 5.87469 40.5813 5.94425C41.3677 6.4718 42.1547 6.99844 42.9417 7.52499C43.7479 8.06435 44.5535 8.6045 45.3577 9.14677C47.0858 10.3119 48.8195 11.4689 50.5529 12.6263C52.3175 13.8046 54.0813 14.9839 55.8378 16.1739C57.2081 17.1022 58.5821 18.0251 59.9578 18.9456C60.0752 19.0242 60.1926 19.1028 60.3136 19.1837C60.9983 19.6419 60.9983 19.6419 61.6831 20.1C62.2852 20.5026 62.8866 20.9062 63.4871 21.311C63.7059 21.4582 63.925 21.6049 64.1442 21.7514C64.4939 21.985 64.8427 22.2199 65.1914 22.455C65.2988 22.5264 65.4063 22.5978 65.517 22.6713C66.7648 23.5169 66.7648 23.5169 67.012 24.2471C67.0226 24.4435 67.0265 24.6402 67.0269 24.8369C67.0274 24.9601 67.0279 25.0834 67.0284 25.2103C67.0284 25.4143 67.0284 25.4143 67.0283 25.6224C67.0287 25.7678 67.0291 25.9133 67.0296 26.0587C67.0307 26.4593 67.0311 26.8598 67.0314 27.2604C67.0318 27.692 67.0329 28.1237 67.0338 28.5553C67.036 29.5982 67.0372 30.6411 67.0381 31.6839C67.0386 32.1749 67.0392 32.6658 67.0398 33.1567C67.0417 34.7884 67.0433 36.4201 67.0441 38.0518C67.0443 38.4753 67.0445 38.8988 67.0447 39.3223C67.0448 39.4276 67.0448 39.5328 67.0449 39.6413C67.0458 41.3469 67.0486 43.0525 67.0522 44.7582C67.0559 46.5088 67.0579 48.2594 67.0582 50.01C67.0585 50.9931 67.0594 51.9762 67.0623 52.9593C67.0647 53.7965 67.0656 54.6336 67.0645 55.4708C67.064 55.8979 67.0642 56.3251 67.0663 56.7522C67.0683 57.1434 67.0682 57.5345 67.0665 57.9256C67.0661 58.1339 67.0679 58.3422 67.0697 58.5505C67.0642 59.2794 67.0187 59.7461 66.569 60.3353C66.0785 60.7933 65.6022 61.0167 64.9245 61.0167C64.8189 61.0173 64.7133 61.0178 64.6044 61.0184C64.4893 61.0179 64.3741 61.0174 64.2555 61.0169C64.1324 61.0172 64.0094 61.0175 63.8826 61.0178C63.4695 61.0187 63.0565 61.018 62.6434 61.0173C62.3476 61.0176 62.0517 61.018 61.7559 61.0185C61.1185 61.0194 60.481 61.0196 59.8436 61.0193C58.9212 61.019 57.9988 61.0203 57.0765 61.022C55.579 61.0248 54.0816 61.027 52.5841 61.0285C52.4945 61.0286 52.4049 61.0287 52.3126 61.0288C51.0406 61.03 49.7687 61.0306 48.4967 61.0309C48.4072 61.0309 48.3176 61.0309 48.2253 61.0309C48.1358 61.031 48.0463 61.031 47.9542 61.031C46.4624 61.0314 44.9707 61.0335 43.479 61.037C42.5589 61.039 41.6389 61.0397 40.7188 61.0385C40.0884 61.0378 39.4581 61.0387 38.8277 61.0408C38.464 61.042 38.1003 61.0422 37.7365 61.041C37.3422 61.0398 36.9479 61.0412 36.5536 61.0433C36.3812 61.0418 36.3812 61.0418 36.2054 61.0403C35.5625 61.0471 35.1733 61.1014 34.669 61.5346C34.474 61.7616 34.2969 61.9822 34.1221 62.2228C32.9811 63.7277 31.4333 64.8759 29.5363 65.2952C27.4136 65.585 25.5264 65.2887 23.7493 64.0626C22.7903 63.3423 21.6853 62.3535 21.2666 61.2075C21.3718 60.9743 21.3718 60.9743 21.4882 60.7714C21.5609 60.7736 21.6336 60.7759 21.7085 60.7782C22.4687 60.8003 23.2284 60.8107 23.9889 60.8146C24.2722 60.8176 24.5555 60.8234 24.8387 60.8323C26.3297 60.9482 26.3297 60.9482 27.6936 60.503C28.0889 60.0657 28.2733 59.5735 28.4663 59.0269C28.5621 58.8794 28.5621 58.8794 28.6599 58.729C28.8209 58.4961 28.8209 58.4961 28.7795 58.2589C28.678 58.0229 28.5659 57.8013 28.4386 57.5776C28.3895 57.491 28.3403 57.4043 28.2897 57.3151C28.2383 57.2256 28.1869 57.1361 28.134 57.044C28.0826 56.9533 28.0312 56.8625 27.9782 56.7691C27.7588 56.3468 27.7588 56.3468 27.4694 55.9741C27.2837 55.9619 27.0974 55.9571 26.9113 55.9552C26.7327 55.953 26.7327 55.953 26.5506 55.9508C26.421 55.9496 26.2915 55.9485 26.158 55.9473C25.8868 55.9437 25.6155 55.9401 25.3443 55.9365C24.9143 55.9313 24.4843 55.9264 24.0542 55.9222C23.6409 55.9178 23.2276 55.9122 22.8143 55.9064C22.6849 55.9055 22.5556 55.9046 22.4223 55.9036C22.303 55.9018 22.1836 55.9 22.0606 55.8982C21.9552 55.897 21.8497 55.8959 21.7411 55.8947C21.4882 55.8651 21.4882 55.8651 21.2666 55.6471C21.3419 54.6067 22.435 53.6656 23.1522 52.984C24.9418 51.4606 27.0457 51.0133 29.3524 51.1769C31.3088 51.5106 33.0039 52.7332 34.226 54.2297C34.2899 54.3353 34.2899 54.3353 34.3551 54.4431C34.6527 54.9114 34.6527 54.9114 35.1233 55.1824C35.4065 55.212 35.6781 55.2141 35.9629 55.2068C36.1238 55.2079 36.1238 55.2079 36.2881 55.2091C36.6474 55.2105 37.0063 55.2057 37.3656 55.2009C37.6232 55.2007 37.8809 55.2008 38.1385 55.2013C38.8379 55.2016 39.5371 55.1964 40.2364 55.1904C40.8932 55.1855 41.55 55.1846 42.2069 55.1837C43.5076 55.1818 44.8083 55.176 46.109 55.1677C47.3723 55.1597 48.6356 55.1535 49.899 55.1498C49.9769 55.1496 50.0548 55.1494 50.1351 55.1491C50.5259 55.148 50.9168 55.1469 51.3076 55.1458C54.5487 55.1368 57.7897 55.1214 61.0308 55.1019C61.0485 51.5018 61.0622 47.9017 61.0704 44.3015C61.0714 43.8766 61.0724 43.4516 61.0734 43.0266C61.0737 42.8997 61.0737 42.8997 61.074 42.7703C61.0774 41.4001 61.0835 40.03 61.0906 38.6599C61.0979 37.2541 61.1022 35.8484 61.1038 34.4426C61.1048 33.5751 61.1082 32.7076 61.1145 31.8401C61.1191 31.175 61.1195 30.51 61.1185 29.8449C61.1187 29.572 61.1203 29.299 61.1232 29.0261C61.1271 28.6538 61.1262 28.2818 61.124 27.9096C61.1274 27.747 61.1274 27.747 61.1309 27.5811C61.1262 27.023 61.1262 27.023 60.8628 26.546C60.6679 26.3788 60.473 26.2376 60.2555 26.1006C60.154 26.0289 60.0525 25.9573 59.948 25.8835C59.8506 25.8208 59.7531 25.758 59.6527 25.6934C59.5433 25.6225 59.4339 25.5515 59.3212 25.4784C59.2069 25.4049 59.0925 25.3314 58.9747 25.2556C57.5247 24.314 57.5247 24.314 56.8495 23.8314C56.1077 23.3028 55.3509 22.7967 54.5927 22.2914C54.5264 22.2473 54.4602 22.2031 54.392 22.1576C54.0492 21.9293 53.7064 21.7011 53.3635 21.4729C52.679 21.0173 51.9951 20.5607 51.3113 20.1041C51.2454 20.0601 51.1796 20.0161 51.1117 19.9708C50.3185 19.4412 49.5265 18.91 48.7376 18.3742C48.063 17.9166 47.3853 17.4636 46.7077 17.0104C45.4545 16.1723 44.2034 15.3312 42.9538 14.488C41.6981 13.6406 40.4417 12.7944 39.18 11.9558C39.0475 11.8677 38.915 11.7796 38.7824 11.6915C38.7168 11.6479 38.6512 11.6043 38.5837 11.5594C38.1916 11.2983 37.8018 11.0346 37.4135 10.7681C37.2295 10.6421 37.0449 10.5169 36.8602 10.392C36.6323 10.2377 36.4054 10.082 36.1796 9.92474C36.0269 9.82214 36.0269 9.82214 35.871 9.71746C35.7388 9.62676 35.7388 9.62676 35.6039 9.53423C35.2434 9.38101 35.0432 9.42417 34.669 9.52837C34.423 9.6518 34.423 9.6518 34.2013 9.81925C34.1156 9.87987 34.0298 9.94049 33.9414 10.0029C33.8047 10.102 33.8047 10.102 33.6652 10.203C33.4661 10.3438 33.2668 10.4843 33.0673 10.6246C32.9654 10.6965 32.8635 10.7685 32.7585 10.8426C32.2873 11.1707 31.8069 11.4844 31.3254 11.7975C29.556 12.9516 27.8052 14.1328 26.054 15.3134C24.4755 16.3772 22.892 17.4338 21.3089 18.4909C20.212 19.2232 19.1154 19.9558 18.0199 20.6901C17.8732 20.7882 17.8732 20.7882 17.7236 20.8884C17.6322 20.9497 17.5408 21.011 17.4466 21.0742C17.3683 21.1267 17.29 21.1792 17.2093 21.2332C17.1227 21.2924 17.0361 21.3515 16.9468 21.4124C16.8154 21.475 16.6839 21.5377 16.5484 21.6023C16.2627 21.8066 16.182 21.9136 16.1005 22.256C16.0742 22.6584 16.0734 23.0571 16.0805 23.4598C16.0804 23.6164 16.08 23.773 16.0792 23.9296C16.0781 24.3599 16.0819 24.7902 16.0864 25.2205C16.0904 25.6846 16.0899 26.1486 16.09 26.6127C16.0907 27.4169 16.0943 28.221 16.0997 29.0251C16.1074 30.1884 16.1106 31.3516 16.1126 32.5149C16.1159 34.403 16.1225 36.291 16.1313 38.1791C16.1398 40.0119 16.1476 41.8447 16.154 43.6776C16.1544 43.7904 16.1548 43.9033 16.1552 44.0196C16.1594 45.2516 16.1632 46.4836 16.1664 47.7157C16.1667 47.8239 16.1669 47.9322 16.1672 48.0437C16.1683 48.4764 16.1694 48.9091 16.1705 49.3417C16.1735 50.6093 16.1778 51.8768 16.1846 53.1443C16.1888 53.9392 16.1919 54.7341 16.1941 55.529C16.1954 55.9879 16.1973 56.4468 16.2007 56.9057C16.2037 57.3257 16.2053 57.7456 16.2056 58.1655C16.206 58.3176 16.207 58.4697 16.2086 58.6217C16.2107 58.8282 16.2105 59.0346 16.2102 59.241C16.2108 59.3558 16.2113 59.4706 16.2119 59.5888C16.1517 60.0515 15.9645 60.3391 15.6071 60.6391C15.1474 60.8281 14.7302 60.8179 14.2366 60.8154C14.1317 60.8162 14.0268 60.8169 13.9188 60.8177C13.5726 60.8197 13.2264 60.8193 12.8802 60.8186C12.6392 60.8191 12.3982 60.8197 12.1572 60.8204C11.6523 60.8213 11.1474 60.8211 10.6424 60.82C9.9957 60.8187 9.34904 60.8209 8.70232 60.8241C8.20468 60.8261 7.70706 60.8261 7.20943 60.8255C6.971 60.8255 6.73258 60.8261 6.49415 60.8275C6.16061 60.8291 5.82718 60.8279 5.49364 60.8261C5.3954 60.8271 5.29716 60.8282 5.19594 60.8293C4.59094 60.8222 4.24603 60.7313 3.76596 60.3353C3.34561 59.8656 3.19838 59.616 3.19758 58.9954C3.19716 58.8723 3.19673 58.7492 3.19629 58.6224C3.19639 58.486 3.19649 58.3497 3.19658 58.2092C3.1963 58.0637 3.19597 57.9183 3.19559 57.7729C3.19469 57.3719 3.1945 56.9709 3.19441 56.5699C3.19421 56.1379 3.19337 55.7059 3.19263 55.274C3.19112 54.3288 3.19045 53.3836 3.18997 52.4384C3.18966 51.8484 3.18919 51.2585 3.18869 50.6685C3.18734 49.0359 3.1862 47.4033 3.18583 45.7706C3.1858 45.6661 3.18578 45.5615 3.18575 45.4538C3.18573 45.349 3.18571 45.2442 3.18568 45.1362C3.18563 44.9239 3.18558 44.7115 3.18553 44.4991C3.18551 44.3937 3.18548 44.2884 3.18546 44.1799C3.18502 42.4727 3.18309 40.7656 3.18051 39.0585C3.17788 37.3068 3.1765 35.5551 3.17637 33.8034C3.17627 32.8195 3.17563 31.8355 3.17362 30.8516C3.17192 30.0138 3.17135 29.176 3.17226 28.3381C3.1727 27.9106 3.17259 27.483 3.17104 27.0554C3.16963 26.664 3.16976 26.2726 3.1711 25.8812C3.17143 25.6725 3.17011 25.4638 3.16873 25.2551C3.17312 24.5077 3.20372 23.9639 3.73397 23.3865C4.28971 22.9274 4.86733 22.5231 5.47587 22.1347C5.68249 22.0009 5.88901 21.8671 6.09546 21.7331C6.20326 21.6632 6.31106 21.5934 6.42213 21.5215C6.99623 21.1471 7.56516 20.7652 8.1342 20.3834C8.30881 20.2664 8.30881 20.2664 8.48694 20.147C8.83325 19.9147 9.17947 19.6823 9.52567 19.4499C9.73623 19.3086 9.9468 19.1674 10.1574 19.0261C10.6589 18.6897 11.1604 18.353 11.6618 18.0163C11.9685 17.8104 12.2753 17.6046 12.5821 17.3988C13.5391 16.7568 14.4959 16.1144 15.4515 15.4704C16.5103 14.7569 17.5704 14.0455 18.6306 13.3342C19.1401 12.9924 19.6496 12.6505 20.159 12.3086C20.772 11.8971 21.3851 11.4857 21.9983 11.0743C23.3061 10.197 24.6128 9.31819 25.9187 8.43809C27.1286 7.62269 28.3391 6.80827 29.5509 5.99559C30.1331 5.6051 30.7146 5.21374 31.2955 4.82155C32.0322 4.32438 32.7702 3.82942 33.5129 3.34105C33.5823 3.2954 33.6516 3.24975 33.723 3.20272C34.4257 2.74241 34.9288 2.65357 35.7767 2.76866Z" fill="#FC5A11"/>
<path d="M59.8124 30.1346C59.8176 33.2298 59.8215 36.325 59.8239 39.4202C59.8251 40.8573 59.8266 42.2943 59.8292 43.7314C59.8314 44.9835 59.8328 46.2356 59.8333 47.4877C59.8336 48.1511 59.8343 48.8145 59.8359 49.4778C59.8374 50.1016 59.8378 50.7253 59.8375 51.349C59.8376 51.5785 59.838 51.8081 59.8389 52.0376C59.8399 52.3498 59.8397 52.6619 59.8391 52.9741C59.8397 53.0659 59.8404 53.1578 59.841 53.2524C59.8377 53.8777 59.8377 53.8777 59.5909 54.1207C59.3204 54.1469 59.3204 54.1469 58.976 54.1454C58.7831 54.1454 58.7831 54.1454 58.5863 54.1454C58.447 54.1443 58.3076 54.1431 58.164 54.142C58.0217 54.1417 57.8794 54.1414 57.7328 54.141C57.3544 54.1402 56.976 54.1381 56.5977 54.1357C56.2116 54.1334 55.8255 54.1324 55.4394 54.1313C54.6818 54.129 53.9242 54.1252 53.1666 54.1207C53.1301 53.4731 53.0935 52.8254 53.0559 52.1582C52.8731 52.1222 52.6903 52.0862 52.502 52.0492C52.0033 52.5401 52.3196 53.4274 52.2805 54.1207C50.855 54.1207 49.4295 54.1207 47.9607 54.1207C47.9242 53.509 47.8876 52.8974 47.85 52.2672C47.7253 52.1194 47.7253 52.1194 47.4 52.1514C47.2389 52.1547 47.2389 52.1547 47.0746 52.1582C46.7756 52.7469 46.8948 53.4638 46.8531 54.1207C45.4276 54.1207 44.002 54.1207 42.5333 54.1207C42.4968 53.509 42.4602 52.8974 42.4225 52.2672C41.9267 52.1511 41.9267 52.1511 41.6472 52.1582C41.6106 52.8058 41.5741 53.4534 41.5364 54.1207C39.6723 54.1207 37.8081 54.1207 35.8875 54.1207C35.9947 53.6987 36.0234 53.6191 36.3133 53.3358C36.3804 53.2695 36.4474 53.2032 36.5165 53.1349C36.5905 53.0634 36.6645 52.9919 36.7408 52.9183C36.8184 52.842 36.896 52.7657 36.976 52.6871C37.2334 52.4345 37.492 52.1831 37.7506 51.9316C37.9299 51.756 38.1092 51.5802 38.2884 51.4044C38.7612 50.9409 39.2349 50.4783 39.7089 50.016C40.4654 49.2777 41.2206 48.5381 41.9757 47.7984C42.2389 47.5409 42.5025 47.2837 42.7662 47.0267C42.9293 46.8672 43.0924 46.7077 43.2555 46.5483C43.3281 46.4777 43.4008 46.4071 43.4756 46.3343C43.8186 45.9983 44.1487 45.6573 44.4647 45.2965C44.8877 44.8145 45.3404 44.3661 45.7993 43.9174C45.9354 43.7838 45.9354 43.7838 46.0742 43.6474C46.2697 43.4553 46.4654 43.2633 46.6612 43.0715C46.9716 42.7673 47.2817 42.4629 47.5917 42.1583C48.3055 41.4569 49.0199 40.7561 49.7344 40.0553C50.3898 39.4123 51.0451 38.7693 51.6999 38.1258C52.0566 37.7753 52.4137 37.4253 52.7709 37.0754C52.9587 36.8909 53.1465 36.7064 53.3343 36.5219C53.4183 36.4397 53.5023 36.3576 53.5889 36.2729C54.0372 35.8318 54.4644 35.3799 54.8782 34.9073C55.0971 34.6601 55.3275 34.4264 55.5629 34.1944C55.702 34.057 55.702 34.057 55.8439 33.9168C55.9413 33.8211 56.0387 33.7255 56.1391 33.6269C56.241 33.5265 56.3429 33.4261 56.4479 33.3226C56.6616 33.1121 56.8755 32.9017 57.0896 32.6915C57.3645 32.4216 57.6389 32.1511 57.9131 31.8806C58.1753 31.622 58.4379 31.3638 58.7005 31.1056C58.7992 31.0082 58.898 30.9108 58.9997 30.8104C59.0904 30.7215 59.181 30.6327 59.2744 30.5411C59.3544 30.4624 59.4345 30.3837 59.517 30.3026C59.7017 30.1346 59.7017 30.1346 59.8124 30.1346Z" fill="#131313"/>
<path d="M15.95 21.9576C16.2042 22.3328 16.1994 22.4692 16.1997 22.9108C16.2004 23.0421 16.201 23.1735 16.2017 23.3088C16.2013 23.4553 16.2009 23.6018 16.2004 23.7483C16.2008 23.9033 16.2012 24.0584 16.2017 24.2134C16.2029 24.6405 16.2026 25.0676 16.2021 25.4947C16.2019 25.9549 16.2029 26.415 16.2037 26.8752C16.2051 27.7772 16.2053 28.6792 16.205 29.5812C16.2049 30.3142 16.205 31.0472 16.2055 31.7801C16.2056 31.8843 16.2056 31.9885 16.2057 32.0959C16.2058 32.3075 16.206 32.5192 16.2061 32.7308C16.2073 34.7172 16.2071 36.7035 16.2064 38.6899C16.2058 40.5082 16.2071 42.3264 16.2092 44.1446C16.2113 46.0103 16.2122 47.876 16.2118 49.7416C16.2116 50.7896 16.2119 51.8375 16.2135 52.8855C16.2148 53.7777 16.2149 54.6698 16.2136 55.562C16.2129 56.0174 16.2128 56.4728 16.2142 56.9282C16.2153 57.3449 16.215 57.7615 16.2135 58.1782C16.2132 58.3291 16.2134 58.4801 16.2143 58.631C16.2154 58.8358 16.2143 59.0407 16.2131 59.2456C16.2131 59.4164 16.2131 59.4164 16.2131 59.5907C16.1513 60.0499 15.9629 60.3381 15.6116 60.6399C15.1296 60.8342 14.681 60.8118 14.1653 60.8033C14.0224 60.8028 14.0224 60.8028 13.8766 60.8023C13.5224 60.8006 13.1682 60.7961 12.814 60.7918C11.6249 60.7817 11.6249 60.7817 10.4118 60.7714C10.4118 58.5767 10.4118 56.3819 10.4118 54.1207C10.9236 54.0847 11.4353 54.0487 11.9625 54.0117C11.9991 53.8318 12.0356 53.6519 12.0733 53.4665C11.8583 53.2549 11.4671 53.314 11.1803 53.2962C10.9267 53.2804 10.6731 53.2647 10.4118 53.2485C10.4118 52.6368 10.4118 52.0252 10.4118 51.395C10.6344 51.3884 10.857 51.3818 11.0864 51.375C11.3012 51.3682 11.516 51.3614 11.7308 51.3544C11.8805 51.3497 12.0301 51.3451 12.1798 51.3408C12.3946 51.3345 12.6093 51.3275 12.824 51.3205C12.9533 51.3165 13.0827 51.3125 13.216 51.3084C13.5041 51.3186 13.5041 51.3186 13.624 51.177C13.624 50.9611 13.624 50.7452 13.624 50.5228C12.564 50.4868 11.504 50.4508 10.4118 50.4138C10.4118 49.7661 10.4118 49.1185 10.4118 48.4513C10.6631 48.4355 10.9144 48.4198 11.1733 48.4036C11.6969 48.3877 11.6969 48.3877 12.1841 48.2332C12.1841 48.0173 12.1841 47.8015 12.1841 47.579C11.5992 47.5431 11.0144 47.5071 10.4118 47.47C10.4118 46.8584 10.4118 46.2467 10.4118 45.6166C10.7438 45.6085 10.7438 45.6085 11.0825 45.6004C11.2966 45.5943 11.5107 45.5882 11.7247 45.5819C11.9469 45.5757 12.1691 45.5706 12.3913 45.5654C12.5305 45.5612 12.6697 45.557 12.8132 45.5527C12.9419 45.5492 13.0707 45.5458 13.2034 45.5423C13.5284 45.5379 13.5284 45.5379 13.7348 45.2895C13.7027 44.9289 13.7027 44.9289 13.5132 44.6353C13.2839 44.618 13.0539 44.6079 12.824 44.6008C12.6844 44.5962 12.5448 44.5917 12.401 44.587C12.2526 44.5826 12.1041 44.5783 11.9556 44.574C11.8067 44.5693 11.6578 44.5645 11.5089 44.5597C11.1432 44.5481 10.7775 44.5371 10.4118 44.5263C10.4118 43.8787 10.4118 43.231 10.4118 42.5638C10.9967 42.5278 11.5815 42.4918 12.1841 42.4547C12.1841 42.2389 12.1841 42.023 12.1841 41.8006C11.5992 41.7646 11.0144 41.7286 10.4118 41.6916C10.4118 41.0799 10.4118 40.4683 10.4118 39.8381C10.6252 39.8327 10.8385 39.8274 11.0583 39.8219C11.3366 39.8137 11.615 39.8055 11.8933 39.7972C12.1045 39.7921 12.1045 39.7921 12.3199 39.787C12.4541 39.7828 12.5884 39.7785 12.7266 39.7742C12.8508 39.7708 12.9749 39.7674 13.1028 39.7638C13.4188 39.758 13.4188 39.758 13.624 39.511C13.624 39.2951 13.624 39.0793 13.624 38.8568C12.564 38.8209 11.504 38.7849 10.4118 38.7478C10.4118 38.1002 10.4118 37.4526 10.4118 36.7853C10.9967 36.7853 11.5815 36.7853 12.1841 36.7853C12.1841 36.5694 12.1841 36.3536 12.1841 36.1311C11.9645 35.915 11.538 35.9774 11.2357 35.9608C10.9638 35.945 10.6919 35.9293 10.4118 35.9131C10.4118 35.3014 10.4118 34.6898 10.4118 34.0596C12.0567 34.0057 12.0567 34.0057 13.7348 33.9506C13.7348 33.7347 13.7348 33.5188 13.7348 33.2964C13.5288 33.0937 13.1866 33.1611 12.9105 33.1529C12.766 33.1483 12.6214 33.1438 12.4724 33.1391C12.3186 33.1347 12.1648 33.1304 12.011 33.1261C11.8567 33.1214 11.7025 33.1166 11.5483 33.1118C11.1695 33.1002 10.7907 33.0892 10.4118 33.0784C10.4118 32.3948 10.4118 31.7112 10.4118 31.0068C10.9236 30.9709 11.4353 30.9349 11.9625 30.8978C11.9991 30.7179 12.0356 30.538 12.0733 30.3527C11.8583 30.1411 11.4671 30.2001 11.1803 30.1823C10.9267 30.1666 10.6731 30.1508 10.4118 30.1346C10.4118 29.523 10.4118 28.9113 10.4118 28.2812C10.6412 28.2758 10.8705 28.2705 11.1067 28.265C11.3285 28.2589 11.5503 28.2528 11.7721 28.2466C11.9263 28.2424 12.0806 28.2386 12.2349 28.2352C12.4565 28.2302 12.6781 28.2237 12.8997 28.2173C13.0331 28.2138 13.1665 28.2104 13.304 28.2069C13.6379 28.2038 13.6379 28.2038 13.8455 27.9541C13.8134 27.5935 13.8134 27.5935 13.624 27.2999C13.3865 27.2826 13.1485 27.2725 12.9105 27.2654C12.766 27.2608 12.6214 27.2563 12.4724 27.2516C12.3186 27.2472 12.1648 27.2429 12.011 27.2386C11.8567 27.2339 11.7025 27.2291 11.5483 27.2243C11.1695 27.2127 10.7907 27.2016 10.4118 27.1909C10.2916 25.8533 10.2916 25.8533 10.4118 25.5555C10.7421 25.2408 11.1269 25.0244 11.5195 24.7923C11.7478 24.6445 11.9757 24.496 12.2031 24.3468C12.4458 24.1907 12.6887 24.0348 12.9317 23.8792C13.0593 23.7973 13.1868 23.7154 13.3144 23.6335C14.1905 23.0711 15.0683 22.5114 15.95 21.9576Z" fill="#131313"/>
<path d="M10.0847 0.62773C10.2607 0.626602 10.4367 0.625395 10.6127 0.624115C10.9783 0.622017 11.3439 0.621617 11.7095 0.622327C12.175 0.622984 12.6401 0.618133 13.1055 0.611872C13.4678 0.607819 13.83 0.607305 14.1923 0.607759C14.3638 0.607449 14.5353 0.605938 14.7068 0.603128C15.8443 0.586424 16.5783 0.756256 17.5007 1.46034C18.6256 2.11567 19.8725 2.29358 21.1606 2.05105C21.8268 1.86134 22.2459 1.60529 22.7689 1.16052C23.5216 0.609371 24.2294 0.606897 25.1503 0.608565C25.3501 0.608723 25.3501 0.608723 25.554 0.608885C26.487 0.636157 26.487 0.636157 26.8399 0.859654C27.1141 1.26208 27.1044 1.62337 27.1124 2.09918C27.1147 2.19329 27.117 2.2874 27.1193 2.38437C27.123 2.5834 27.1254 2.78245 27.1267 2.98151C27.1302 3.28439 27.1425 3.58614 27.1551 3.88876C27.1854 5.29687 27.1854 5.29687 26.774 5.80761C26.4622 6.03094 26.154 6.20037 25.8079 6.36659C25.6698 6.463 25.5337 6.56247 25.4012 6.66641C25.2325 6.78784 25.2325 6.78784 25.0603 6.91173C24.9466 6.99493 24.833 7.07813 24.7159 7.16385C24.3018 7.38284 24.0563 7.40965 23.5927 7.34784C23.3863 7.20005 23.3863 7.20005 23.2258 7.00031C22.5572 6.26975 21.5768 5.88069 20.5925 5.78993C19.5137 5.74539 18.5624 5.92215 17.6763 6.55866C16.7405 7.40912 16.2168 8.67656 16.1507 9.91949C16.149 10.6649 16.149 10.6649 16.165 11.4101C16.2012 12.6237 16.2012 12.6237 15.8582 13.0524C15.6031 13.2503 15.348 13.4082 15.0639 13.5624C14.9394 13.6452 14.8155 13.729 14.6926 13.8141C14.573 13.8907 14.4533 13.9673 14.3301 14.0462C13.4417 14.6192 12.5731 15.2194 11.7056 15.8226C11.5475 15.9318 11.5475 15.9318 11.3862 16.0432C11.2917 16.1088 11.1973 16.1744 11.1001 16.2419C10.8548 16.3971 10.8548 16.3971 10.5226 16.5062C10.5219 16.3911 10.5219 16.3911 10.5213 16.2737C10.5171 15.5426 10.5108 14.8115 10.5022 14.0804C10.4979 13.7048 10.4943 13.3291 10.4925 12.9534C10.5588 9.8281 10.5588 9.8281 9.12027 7.15533C8.40119 6.49106 7.6 6.30425 6.63198 6.31207C6.54 6.31278 6.44802 6.31348 6.35326 6.3142C4.41755 6.37 2.42164 7.54076 1.09682 8.89339C0.81653 9.20328 0.56633 9.50992 0.332291 9.85547C0.222635 9.85547 0.112979 9.85547 0 9.85547C0.115971 7.68655 1.32251 5.63782 2.65833 3.96798C2.77591 3.81999 2.77591 3.81999 2.89587 3.66901C4.72243 1.5275 7.31617 0.627541 10.0847 0.62773Z" fill="#131313"/>
<path d="M10.4118 25.7735C10.4118 26.2412 10.4118 26.709 10.4118 27.1909C10.7538 27.1852 10.7538 27.1852 11.1027 27.1794C11.3238 27.1771 11.5448 27.1748 11.7659 27.1729C11.9194 27.1713 12.0729 27.169 12.2265 27.1662C12.4472 27.1622 12.668 27.1605 12.8888 27.1589C13.0216 27.1572 13.1545 27.1555 13.2913 27.1537C13.6239 27.1909 13.6239 27.1909 13.8373 27.3389C13.9562 27.5179 13.9562 27.5179 13.9354 27.7973C13.8454 28.0631 13.8454 28.0631 13.6239 28.2811C13.3039 28.3059 13.3039 28.3059 12.8996 28.3024C12.6833 28.3014 12.6833 28.3014 12.4626 28.3003C12.3097 28.2985 12.1569 28.2966 12.004 28.2948C11.8502 28.2937 11.6965 28.2927 11.5428 28.2918C11.1657 28.2892 10.7887 28.2853 10.4118 28.2811C10.4118 28.8928 10.4118 29.5044 10.4118 30.1346C10.7887 30.1279 10.7887 30.1279 11.1733 30.121C11.6016 30.1133 11.6016 30.1133 11.9624 30.1346C12.0356 30.2066 12.1087 30.2785 12.184 30.3527C12.1224 30.8493 12.1224 30.8493 11.9624 31.0068C11.4454 31.0226 10.9292 31.0114 10.4118 31.0068C10.4118 31.6904 10.4118 32.374 10.4118 33.0784C10.6411 33.0758 10.8704 33.0733 11.1066 33.0707C11.3284 33.0692 11.5502 33.0677 11.772 33.0664C11.9262 33.0653 12.0805 33.0638 12.2348 33.0619C12.4564 33.0593 12.678 33.0581 12.8996 33.0571C13.0997 33.0554 13.0997 33.0554 13.3039 33.0536C13.6239 33.0784 13.6239 33.0784 13.8454 33.2964C13.8177 33.6303 13.8177 33.6303 13.7347 33.9506C13.4225 34.1042 13.1617 34.0718 12.8131 34.0703C12.6739 34.0699 12.5347 34.0696 12.3912 34.0692C12.2452 34.0683 12.0991 34.0674 11.9486 34.0664C11.8002 34.0659 11.6518 34.0654 11.5034 34.0649C11.1395 34.0636 10.7756 34.0617 10.4118 34.0596C10.4118 34.6713 10.4118 35.2829 10.4118 35.9131C10.9486 35.9045 10.9486 35.9045 11.4854 35.8934C11.6814 35.8918 11.8775 35.9023 12.0732 35.9131C12.1463 35.985 12.2194 36.057 12.2947 36.1311C12.2582 36.347 12.2216 36.5629 12.184 36.7853C11.5991 36.7853 11.0143 36.7853 10.4118 36.7853C10.4118 37.4329 10.4118 38.0805 10.4118 38.7478C10.6238 38.744 10.8358 38.7402 11.0543 38.7363C11.3316 38.7332 11.609 38.7303 11.8863 38.7274C12.0262 38.7246 12.166 38.7219 12.3101 38.7191C12.444 38.718 12.5778 38.7169 12.7157 38.7159C12.9011 38.7133 12.9011 38.7133 13.0901 38.7107C13.4024 38.7478 13.4024 38.7478 13.6127 38.8959C13.7347 39.0749 13.7347 39.0749 13.7139 39.3543C13.6239 39.62 13.6239 39.62 13.4024 39.8381C13.1027 39.8628 13.1027 39.8628 12.7265 39.8594C12.5252 39.8583 12.5252 39.8583 12.3198 39.8572C12.179 39.8554 12.0383 39.8536 11.8932 39.8517C11.7516 39.8507 11.6099 39.8497 11.464 39.8487C11.1132 39.8461 10.7625 39.8422 10.4118 39.8381C10.4118 40.4497 10.4118 41.0614 10.4118 41.6915C10.99 41.6872 10.99 41.6872 11.5683 41.6817C11.7735 41.6809 11.9788 41.6861 12.184 41.6915C12.2947 41.8006 12.2947 41.8006 12.3086 42.1277C12.2947 42.4547 12.2947 42.4547 12.184 42.5638C11.8851 42.5718 11.5897 42.5738 11.2909 42.5706C11.0008 42.5683 10.7107 42.5661 10.4118 42.5638C10.4118 43.2114 10.4118 43.859 10.4118 44.5263C10.6318 44.5225 10.8518 44.5187 11.0785 44.5148C11.2919 44.5125 11.5052 44.5102 11.7186 44.5083C11.9395 44.5058 12.1605 44.5017 12.3815 44.4975C12.5898 44.4959 12.5898 44.4959 12.8023 44.4943C12.9945 44.4918 12.9945 44.4918 13.1907 44.4891C13.5131 44.5263 13.5131 44.5263 13.725 44.6743C13.8454 44.8533 13.8454 44.8533 13.8247 45.1327C13.7347 45.3985 13.7347 45.3985 13.5131 45.6165C13.2033 45.6413 13.2033 45.6413 12.8131 45.6378C12.6043 45.6368 12.6043 45.6368 12.3912 45.6357C12.2452 45.6339 12.0991 45.6321 11.9486 45.6302C11.8002 45.6291 11.6518 45.6281 11.5034 45.6272C11.1395 45.6246 10.7756 45.6207 10.4118 45.6165C10.4118 46.2282 10.4118 46.8398 10.4118 47.47C10.99 47.4657 10.99 47.4657 11.5683 47.4602C11.7735 47.4594 11.9788 47.4645 12.184 47.47C12.2947 47.579 12.2947 47.579 12.3224 47.8993C12.3133 48.0095 12.3042 48.1197 12.2947 48.2332C11.8808 48.5048 11.6585 48.4738 11.1663 48.4649C10.9173 48.4604 10.6683 48.4559 10.4118 48.4513C10.4118 49.0989 10.4118 49.7465 10.4118 50.4138C10.6423 50.4125 10.8729 50.4112 11.1105 50.4099C11.333 50.4092 11.5555 50.4084 11.778 50.4078C11.9331 50.4072 12.0881 50.4065 12.2432 50.4055C12.4656 50.4042 12.688 50.4037 12.9104 50.4031C13.1114 50.4023 13.1114 50.4023 13.3165 50.4014C13.6239 50.4138 13.6239 50.4138 13.7347 50.5228C13.7554 50.8431 13.7554 50.8431 13.7347 51.177C13.5131 51.395 13.5131 51.395 13.2033 51.4198C13.0745 51.4186 12.9458 51.4175 12.8131 51.4163C12.6043 51.4152 12.6043 51.4152 12.3912 51.4142C12.2452 51.4123 12.0991 51.4105 11.9486 51.4086C11.8002 51.4075 11.6518 51.4065 11.5034 51.4057C11.1395 51.4031 10.7756 51.3992 10.4118 51.395C10.4118 52.0067 10.4118 52.6183 10.4118 53.2485C10.663 53.244 10.9143 53.2395 11.1733 53.2348C11.6016 53.2272 11.6016 53.2272 11.9624 53.2485C12.0356 53.3204 12.1087 53.3924 12.184 53.4665C12.1224 53.9632 12.1224 53.9632 11.9624 54.1207C11.4454 54.1364 10.9292 54.1253 10.4118 54.1207C10.4118 54.9122 10.4118 55.7038 10.4118 56.5193C9.41488 56.5193 9.41488 56.5193 9.18912 56.3332C9.07213 56.0587 9.04052 55.8689 9.03954 55.5716C9.0384 55.4686 9.03726 55.3656 9.03608 55.2595C9.03652 55.1467 9.03696 55.0338 9.03741 54.9176C9.03658 54.7975 9.03575 54.6774 9.03489 54.5536C9.03252 54.1497 9.03254 53.7457 9.03256 53.3418C9.03139 53.0528 9.03008 52.7638 9.02864 52.4747C9.02508 51.6886 9.024 50.9024 9.02336 50.1162C9.02295 49.6254 9.02197 49.1345 9.02087 48.6437C9.01789 47.2847 9.01539 45.9257 9.01513 44.5668C9.01511 44.4798 9.01509 44.3928 9.01507 44.3032C9.01504 44.127 9.01501 43.9507 9.01498 43.7744C9.01496 43.6869 9.01495 43.5993 9.01493 43.5092C9.01491 43.4216 9.0149 43.334 9.01488 43.2437C9.01454 41.8235 9.01048 40.4033 9.00478 38.9832C8.99897 37.5252 8.99606 36.0672 8.99612 34.6092C8.9961 33.7905 8.99485 32.9719 8.99045 32.1533C8.98673 31.4563 8.98568 30.7593 8.9881 30.0623C8.98926 29.7067 8.98874 29.3512 8.98569 28.9956C8.98259 28.61 8.98424 28.2246 8.98711 27.839C8.98508 27.7267 8.98305 27.6143 8.98096 27.4986C8.99346 26.7582 8.99346 26.7582 9.24989 26.4347C9.44501 26.2667 9.63846 26.1268 9.85794 25.9916C10.1902 25.7735 10.1902 25.7735 10.4118 25.7735Z" fill="#F9FAFB"/>
<path d="M27.4238 24.414C27.5322 24.4136 27.5322 24.4136 27.6428 24.4132C27.8809 24.413 28.1188 24.4158 28.3568 24.4188C28.5223 24.4193 28.6878 24.4197 28.8533 24.4199C29.1995 24.4207 29.5458 24.4229 29.892 24.4263C30.3368 24.4306 30.7815 24.4326 31.2263 24.4337C31.6497 24.4347 32.0731 24.4369 32.4966 24.4392C32.5778 24.4396 32.659 24.44 32.7427 24.4403C32.9713 24.4416 33.1998 24.4436 33.4284 24.4459C33.6238 24.4475 33.6238 24.4475 33.8231 24.4492C34.1152 24.4652 34.1152 24.4652 34.226 24.5742C34.237 24.7944 34.2402 25.015 34.2403 25.2354C34.2407 25.3769 34.241 25.5185 34.2414 25.6643C34.2412 25.8199 34.2409 25.9756 34.2407 26.1313C34.2408 26.2898 34.2409 26.4482 34.241 26.6067C34.2412 26.9392 34.2409 27.2717 34.2404 27.6043C34.2398 28.0314 34.2401 28.4586 34.2408 28.8857C34.2412 29.2131 34.2411 29.5404 34.2408 29.8678C34.2407 30.0253 34.2408 30.1828 34.2411 30.3404C34.2413 30.5602 34.2408 30.78 34.2403 30.9998C34.2402 31.1252 34.2401 31.2505 34.24 31.3796C34.226 31.661 34.226 31.661 34.1152 31.7701C33.8746 31.7809 33.6335 31.784 33.3926 31.7842C33.3172 31.7844 33.2417 31.7845 33.164 31.7847C32.9134 31.7852 32.6628 31.7849 32.4122 31.7845C32.2388 31.7846 32.0654 31.7847 31.892 31.7849C31.5281 31.785 31.1642 31.7848 30.8003 31.7843C30.3328 31.7836 29.8654 31.784 29.3979 31.7847C29.0397 31.7851 28.6814 31.7849 28.3232 31.7846C28.1508 31.7846 27.9784 31.7847 27.806 31.7849C27.5654 31.7852 27.3249 31.7848 27.0843 31.7842C26.9471 31.7841 26.81 31.784 26.6687 31.7839C26.3617 31.7701 26.3617 31.7701 26.251 31.661C26.2383 31.4526 26.2333 31.2438 26.2314 31.035C26.23 30.9011 26.2285 30.7672 26.2271 30.6292C26.2262 30.4818 26.2253 30.3344 26.2246 30.187C26.2241 30.1131 26.2237 30.0392 26.2232 29.963C26.2209 29.5716 26.2193 29.1801 26.2183 28.7887C26.2171 28.3843 26.2133 27.9799 26.2089 27.5756C26.206 27.2647 26.205 26.9539 26.2046 26.6431C26.2041 26.4941 26.2028 26.345 26.2008 26.196C26.1981 25.9872 26.1984 25.7784 26.1989 25.5696C26.1983 25.4508 26.1976 25.332 26.197 25.2096C26.251 24.9013 26.251 24.9013 26.4302 24.6447C26.7795 24.4071 27.0008 24.4119 27.4238 24.414Z" fill="#FC5A11"/>
<path d="M27.0843 33.3914C27.1598 33.3912 27.2353 33.391 27.313 33.3908C27.5636 33.3903 27.8142 33.3906 28.0648 33.391C28.2382 33.3909 28.4116 33.3908 28.585 33.3907C28.9489 33.3905 29.3128 33.3908 29.6767 33.3913C30.1442 33.3919 30.6116 33.3915 31.0791 33.3909C31.4373 33.3905 31.7955 33.3906 32.1538 33.3909C32.3262 33.391 32.4986 33.3909 32.671 33.3906C32.9116 33.3903 33.1521 33.3908 33.3927 33.3914C33.5298 33.3915 33.667 33.3915 33.8083 33.3916C34.1152 33.4055 34.1152 33.4055 34.226 33.5145C34.2376 33.7308 34.2413 33.9474 34.2421 34.164C34.2428 34.3029 34.2435 34.4419 34.2442 34.5851C34.2444 34.738 34.2445 34.891 34.2446 35.0439C34.245 35.1996 34.2453 35.3554 34.2457 35.5112C34.2464 35.8381 34.2466 36.165 34.2465 36.492C34.2465 36.9115 34.248 37.3311 34.2499 37.7506C34.2512 38.0725 34.2514 38.3943 34.2513 38.7162C34.2515 38.8709 34.2519 39.0256 34.2528 39.1803C34.2539 39.3964 34.2534 39.6126 34.2529 39.8287C34.2531 39.9519 34.2532 40.075 34.2534 40.2019C34.226 40.4923 34.226 40.4923 34.0045 40.7103C33.7033 40.7395 33.7033 40.7395 33.3153 40.742C33.0979 40.7441 33.0979 40.7441 32.8761 40.7462C32.7172 40.7466 32.5582 40.7468 32.3993 40.747C32.2367 40.7477 32.0742 40.7484 31.9117 40.7492C31.5707 40.7505 31.2297 40.7509 30.8888 40.7507C30.4519 40.7507 30.0152 40.7537 29.5784 40.7574C29.2426 40.7599 28.9068 40.7603 28.571 40.7602C28.41 40.7605 28.249 40.7614 28.088 40.7631C27.8626 40.7652 27.6373 40.7643 27.4119 40.7633C27.2837 40.7636 27.1555 40.7639 27.0234 40.7642C26.6941 40.7103 26.6941 40.7103 26.4309 40.5307C26.1998 40.2012 26.1968 40.0048 26.1989 39.6059C26.1986 39.471 26.1983 39.336 26.198 39.197C26.1999 39.0502 26.2018 38.9035 26.2038 38.7568C26.2044 38.6061 26.2048 38.4554 26.2049 38.3048C26.2058 37.9896 26.2081 37.6744 26.2115 37.3592C26.2159 36.9545 26.2179 36.5497 26.219 36.1449C26.2201 35.7595 26.2223 35.374 26.2246 34.9885C26.225 34.9146 26.2254 34.8407 26.2258 34.7646C26.227 34.5565 26.2292 34.3485 26.2314 34.1405C26.2325 34.022 26.2336 33.9034 26.2347 33.7813C26.2671 33.2503 26.6182 33.3917 27.0843 33.3914Z" fill="#FC5A11"/>
<path d="M36.6867 24.4476C36.7586 24.4471 36.8305 24.4465 36.9045 24.446C37.1432 24.4444 37.382 24.4436 37.6207 24.443C37.7861 24.4424 37.9516 24.4418 38.117 24.4411C38.4643 24.44 38.8116 24.4393 39.159 24.439C39.6043 24.4384 40.0497 24.4358 40.495 24.4326C40.8369 24.4306 41.1788 24.4301 41.5207 24.4299C41.6849 24.4296 41.8491 24.4287 42.0132 24.4272C42.2429 24.4254 42.4725 24.4256 42.7022 24.4263C42.8983 24.4257 42.8983 24.4257 43.0984 24.4251C43.4194 24.4652 43.4194 24.4652 43.6279 24.5895C43.8078 24.8842 43.7923 25.1156 43.7911 25.4582C43.7915 25.5953 43.7918 25.7325 43.7921 25.8738C43.7908 26.0235 43.7894 26.1732 43.788 26.3229C43.7877 26.4762 43.7875 26.6294 43.7874 26.7827C43.7869 27.1037 43.7853 27.4246 43.7828 27.7456C43.7797 28.1578 43.7785 28.57 43.778 28.9823C43.7775 29.2986 43.7764 29.6149 43.7751 29.9312C43.7745 30.0833 43.7739 30.2353 43.7735 30.3874C43.7728 30.5994 43.7712 30.8113 43.7695 31.0233C43.7687 31.1441 43.768 31.2649 43.7672 31.3893C43.7517 31.661 43.7517 31.661 43.6409 31.77C43.4036 31.7809 43.166 31.784 42.9285 31.7841C42.8169 31.7844 42.8169 31.7844 42.7031 31.7847C42.4561 31.7852 42.2091 31.7849 41.9621 31.7845C41.7912 31.7846 41.6203 31.7847 41.4493 31.7848C41.0907 31.785 40.732 31.7847 40.3733 31.7842C39.9125 31.7836 39.4518 31.784 38.991 31.7846C38.6379 31.785 38.2848 31.7849 37.9317 31.7846C37.7618 31.7845 37.5919 31.7846 37.4219 31.7849C37.1848 31.7851 36.9477 31.7847 36.7106 31.7841C36.5078 31.784 36.5078 31.784 36.3009 31.7839C35.9982 31.77 35.9982 31.77 35.8874 31.661C35.8764 31.4408 35.8733 31.2202 35.8731 30.9998C35.8727 30.8583 35.8724 30.7167 35.872 30.5709C35.8722 30.4153 35.8725 30.2596 35.8727 30.1039C35.8726 29.9455 35.8725 29.787 35.8724 29.6285C35.8722 29.296 35.8725 28.9635 35.873 28.6309C35.8736 28.2038 35.8733 27.7767 35.8726 27.3495C35.8722 27.0222 35.8723 26.6948 35.8726 26.3675C35.8727 26.2099 35.8726 26.0524 35.8723 25.8948C35.8721 25.675 35.8726 25.4552 35.8731 25.2354C35.8732 25.1101 35.8733 24.9847 35.8734 24.8556C35.9001 24.3211 36.2108 24.4503 36.6867 24.4476Z" fill="#FC5A11"/>
<path d="M36.7106 33.3913C36.8222 33.391 36.8222 33.391 36.936 33.3908C37.183 33.3903 37.43 33.3906 37.677 33.391C37.8479 33.3909 38.0188 33.3908 38.1897 33.3906C38.5484 33.3905 38.9071 33.3907 39.2658 33.3912C39.7265 33.3918 40.1873 33.3915 40.6481 33.3908C41.0012 33.3904 41.3543 33.3906 41.7073 33.3908C41.8773 33.3909 42.0472 33.3908 42.2172 33.3906C42.4543 33.3903 42.6914 33.3907 42.9285 33.3913C43.1313 33.3915 43.1313 33.3915 43.3382 33.3916C43.6409 33.4054 43.6409 33.4054 43.7517 33.5145C43.7644 33.7228 43.7693 33.9317 43.7713 34.1404C43.7734 34.3413 43.7734 34.3413 43.7756 34.5463C43.7765 34.6937 43.7773 34.8411 43.778 34.9885C43.7785 35.0624 43.779 35.1363 43.7794 35.2125C43.7817 35.6039 43.7833 35.9954 43.7843 36.3868C43.7856 36.7912 43.7894 37.1956 43.7938 37.5999C43.7967 37.9107 43.7976 38.2215 43.798 38.5324C43.7985 38.6814 43.7998 38.8305 43.8019 38.9795C43.8046 39.1883 43.8042 39.3971 43.8037 39.6059C43.8044 39.7247 43.805 39.8435 43.8057 39.9658C43.7517 40.2742 43.7517 40.2742 43.5718 40.5308C43.2254 40.767 43.0088 40.7636 42.589 40.7615C42.443 40.7618 42.297 40.7622 42.1467 40.7625C41.9878 40.7606 41.8289 40.7587 41.6701 40.7567C41.5071 40.7562 41.3441 40.7558 41.1811 40.7556C40.84 40.7548 40.499 40.7526 40.1579 40.7492C39.7199 40.7449 39.2819 40.7429 38.8438 40.7418C38.4267 40.7408 38.0097 40.7386 37.5926 40.7363C37.5126 40.7359 37.4326 40.7355 37.3502 40.7351C37.1251 40.7339 36.8999 40.7318 36.6748 40.7296C36.4824 40.728 36.4824 40.728 36.2861 40.7263C35.9982 40.7103 35.9982 40.7103 35.8874 40.6013C35.8764 40.3811 35.8733 40.1605 35.8731 39.9401C35.8727 39.7985 35.8724 39.657 35.872 39.5112C35.8722 39.3555 35.8725 39.1999 35.8727 39.0442C35.8726 38.8857 35.8725 38.7273 35.8724 38.5688C35.8722 38.2363 35.8725 37.9037 35.873 37.5712C35.8736 37.1441 35.8733 36.7169 35.8726 36.2898C35.8722 35.9624 35.8723 35.6351 35.8726 35.3077C35.8727 35.1502 35.8726 34.9926 35.8723 34.8351C35.8721 34.6153 35.8726 34.3955 35.8731 34.1757C35.8732 34.0503 35.8733 33.925 35.8734 33.7959C35.9005 33.2533 36.2302 33.3916 36.7106 33.3913Z" fill="#FC5A11"/>
<path d="M55.0496 41.2554C55.1227 41.2554 55.1958 41.2554 55.2711 41.2554C55.2711 44.2777 55.2711 47.2999 55.2711 50.4138C52.2007 50.4138 49.1304 50.4138 45.9669 50.4138C46.0893 50.0524 46.1748 49.9809 46.4654 49.746C47.1307 49.1895 47.7451 48.592 48.3118 47.9383C48.7102 47.4892 49.1381 47.0849 49.5841 46.6821C50.6129 45.7405 51.6086 44.7681 52.6006 43.7893C52.8951 43.4987 53.1903 43.2088 53.4855 42.919C53.6734 42.7339 53.8614 42.5488 54.0492 42.3636C54.1373 42.2772 54.2253 42.1908 54.3159 42.1017C54.4365 41.9825 54.4365 41.9825 54.5596 41.8609C54.6304 41.7911 54.7012 41.7213 54.7742 41.6494C54.9487 41.4793 54.9487 41.4793 55.0496 41.2554Z" fill="#FCFCFC"/>
<path d="M59.8125 30.1346C59.8176 33.2298 59.8215 36.325 59.8239 39.4202C59.8251 40.8573 59.8266 42.2943 59.8292 43.7314C59.8314 44.9835 59.8328 46.2356 59.8333 47.4877C59.8336 48.1511 59.8343 48.8145 59.8359 49.4778C59.8374 50.1016 59.8378 50.7253 59.8375 51.349C59.8376 51.5785 59.838 51.8081 59.8389 52.0376C59.84 52.3498 59.8397 52.6619 59.8391 52.9741C59.8397 53.0659 59.8404 53.1578 59.841 53.2524C59.8377 53.8777 59.8377 53.8777 59.5909 54.1207C59.3204 54.1469 59.3204 54.1469 58.976 54.1454C58.7831 54.1454 58.7831 54.1454 58.5863 54.1454C58.447 54.1443 58.3076 54.1431 58.164 54.142C58.0217 54.1417 57.8794 54.1414 57.7328 54.141C57.3544 54.1402 56.976 54.1381 56.5977 54.1357C56.2116 54.1334 55.8255 54.1324 55.4394 54.1313C54.6818 54.129 53.9242 54.1253 53.1666 54.1207C53.2215 54.0127 53.2215 54.0127 53.2774 53.9026C55.3243 53.9026 57.3712 53.9026 59.4802 53.9026C59.4802 46.2391 59.4802 38.5755 59.4802 30.6797C59.2243 30.9316 58.9684 31.1834 58.7048 31.4429C58.7048 31.1158 58.7048 31.1158 58.919 30.8693C59.0105 30.782 59.102 30.6947 59.1963 30.6048C59.2876 30.5167 59.3788 30.4285 59.4728 30.3377C59.7017 30.1346 59.7017 30.1346 59.8125 30.1346Z" fill="#1D1D1D"/>
<path d="M41.6472 48.1242C41.6472 48.4513 41.6472 48.4513 41.4412 48.6934C41.3447 48.7876 41.2483 48.8818 41.149 48.9788C41.0696 49.057 41.0696 49.057 40.9886 49.1369C40.8131 49.3093 40.6366 49.4806 40.4599 49.6518C40.3382 49.7711 40.2165 49.8904 40.0949 50.0098C39.7744 50.324 39.4529 50.6372 39.1312 50.9502C38.7456 51.3259 38.3612 51.7028 37.9765 52.0795C37.3919 52.6518 36.8057 53.2226 36.2198 53.7936C38.7967 53.8476 38.7967 53.8476 41.4257 53.9026C41.4257 53.363 41.4257 52.8233 41.4257 52.2672C41.4622 52.2672 41.4988 52.2672 41.5364 52.2672C41.5364 52.8789 41.5364 53.4905 41.5364 54.1207C39.6723 54.1207 37.8081 54.1207 35.8875 54.1207C36.0151 53.6181 36.1609 53.4847 36.5294 53.1247C36.5845 53.0704 36.6396 53.0161 36.6964 52.9601C36.8784 52.7812 37.0616 52.6034 37.2448 52.4257C37.3713 52.3017 37.4978 52.1777 37.6242 52.0535C37.9569 51.7273 38.2906 51.4021 38.6245 51.0771C38.9651 50.7451 39.3048 50.4122 39.6446 50.0794C40.3112 49.4268 40.9789 48.7752 41.6472 48.1242Z" fill="#111111"/>
<path d="M299.876 29.6336C298.049 29.6336 296.431 29.1966 295.02 28.3228C293.63 27.429 292.538 26.1877 291.743 24.5989C290.949 22.9901 290.552 21.1232 290.552 18.9981C290.552 16.8531 290.969 14.9664 291.803 13.3378C292.657 11.6893 293.859 10.3984 295.408 9.46492C296.977 8.53146 298.854 8.06473 301.038 8.06473C303.501 8.06473 305.537 8.65062 307.145 9.82241C308.774 10.9942 309.827 12.6228 310.303 14.7082H305.805C305.507 13.7946 304.951 13.0796 304.137 12.5632C303.322 12.027 302.28 11.7588 301.008 11.7588C299.658 11.7588 298.506 12.0568 297.553 12.6526C296.599 13.2484 295.874 14.0826 295.378 15.155C294.901 16.2275 294.663 17.5085 294.663 18.9981C294.663 20.5075 294.901 21.7886 295.378 22.8412C295.874 23.8938 296.58 24.6982 297.493 25.2543C298.427 25.7905 299.519 26.0586 300.77 26.0586C302.597 26.0586 303.978 25.572 304.911 24.5989C305.864 23.6058 306.43 22.3248 306.609 20.7558H301.485V17.7469H310.661V29.2761H306.997L306.669 25.7607H306.55C306.093 26.575 305.537 27.2801 304.881 27.8759C304.226 28.4519 303.471 28.8888 302.617 29.1867C301.783 29.4846 300.869 29.6336 299.876 29.6336Z" fill="#131313"/>
<path d="M270.543 29.2761V8.42223H275.518L284.038 23.8839H284.157V8.42223H288.179V29.2761H283.204L274.684 13.8442H274.565V29.2761H270.543Z" fill="#131313"/>
<path d="M263.851 29.2761V8.42223H267.873V29.2761H263.851Z" fill="#131313"/>
<path d="M243.544 29.2761V8.42223H250.784C253.207 8.42223 255.213 8.85916 256.802 9.73304C258.39 10.5871 259.562 11.7986 260.317 13.3676C261.091 14.9167 261.479 16.7439 261.479 18.8492C261.479 20.9544 261.091 22.7915 260.317 24.3605C259.562 25.9097 258.39 27.1212 256.802 27.9951C255.233 28.8491 253.227 29.2761 250.784 29.2761H243.544ZM247.566 25.8203H250.575C252.283 25.8203 253.634 25.5423 254.627 24.9862C255.62 24.4301 256.325 23.6356 256.742 22.6029C257.159 21.5502 257.368 20.299 257.368 18.8492C257.368 17.3795 257.159 16.1282 256.742 15.0955C256.325 14.0428 255.62 13.2385 254.627 12.6824C253.634 12.1263 252.283 11.8482 250.575 11.8482H247.566V25.8203Z" fill="#131313"/>
<path d="M228.591 29.2761V8.42223H232.612V26.148H241.758V29.2761H228.591Z" fill="#131313"/>
<path d="M215.708 29.6336C213.642 29.6336 211.825 29.1768 210.256 28.2632C208.707 27.3496 207.485 26.0884 206.592 24.4797C205.698 22.8511 205.251 20.9743 205.251 18.8492C205.251 16.724 205.698 14.8571 206.592 13.2484C207.485 11.6198 208.707 10.3487 210.256 9.43512C211.825 8.52153 213.642 8.06473 215.708 8.06473C217.793 8.06473 219.62 8.52153 221.189 9.43512C222.778 10.3487 224.01 11.6198 224.883 13.2484C225.757 14.8571 226.194 16.724 226.194 18.8492C226.194 20.9743 225.757 22.8511 224.883 24.4797C224.01 26.0884 222.778 27.3496 221.189 28.2632C219.62 29.1768 217.793 29.6336 215.708 29.6336ZM215.708 26.0288C217.019 26.0288 218.151 25.7409 219.104 25.1649C220.057 24.5691 220.792 23.7349 221.309 22.6624C221.825 21.5899 222.083 20.3189 222.083 18.8492C222.083 17.3596 221.825 16.0885 221.309 15.0359C220.792 13.9634 220.057 13.1392 219.104 12.5632C218.151 11.9872 217.019 11.6993 215.708 11.6993C214.437 11.6993 213.324 11.9872 212.371 12.5632C211.418 13.1392 210.673 13.9634 210.137 15.0359C209.62 16.0885 209.362 17.3596 209.362 18.8492C209.362 20.3189 209.62 21.5899 210.137 22.6624C210.673 23.7349 211.418 24.5691 212.371 25.1649C213.324 25.7409 214.437 26.0288 215.708 26.0288Z" fill="#131313"/>
<path d="M198.845 29.2761V8.42223H202.867V29.2761H198.845ZM185.708 29.2761V8.42223H189.729V29.2761H185.708ZM189.193 20.2493V17.0021H199.531V20.2493H189.193Z" fill="#131313"/>
<path d="M162.549 29.2761V8.42223H170.355C172.023 8.42223 173.403 8.71021 174.496 9.28617C175.608 9.86214 176.432 10.6367 176.968 11.6099C177.505 12.5632 177.773 13.6258 177.773 14.7976C177.773 15.9098 177.505 16.9525 176.968 17.9256C176.452 18.879 175.638 19.6535 174.526 20.2493C173.433 20.8253 172.023 21.1133 170.295 21.1133H166.571V29.2761H162.549ZM173.364 29.2761L169.074 20.1004H173.423L177.952 29.2761H173.364ZM166.571 18.1938H170.087C171.318 18.1938 172.222 17.8958 172.798 17.3C173.374 16.7042 173.662 15.9197 173.662 14.9465C173.662 13.9733 173.374 13.2087 172.798 12.6526C172.222 12.0766 171.318 11.7886 170.087 11.7886H166.571V18.1938Z" fill="#131313"/>
<path d="M146.577 29.2761V8.42223H160.311V11.6695H150.599V17.1213H159.417V20.2493H150.599V26.0288H160.311V29.2761H146.577Z" fill="#131313"/>
<path d="M121.412 29.2761V8.42223H126.715L132.643 22.2454H132.762L138.631 8.42223H143.904V29.2761H139.883V14.738H139.763L134.699 26.297H130.558L125.553 14.738H125.434V29.2761H121.412Z" fill="#131313"/>
<path d="M108.529 29.6336C106.464 29.6336 104.646 29.1768 103.077 28.2632C101.528 27.3496 100.307 26.0884 99.413 24.4797C98.5193 22.8511 98.0724 20.9743 98.0724 18.8492C98.0724 16.724 98.5193 14.8571 99.413 13.2484C100.307 11.6198 101.528 10.3487 103.077 9.43512C104.646 8.52153 106.464 8.06473 108.529 8.06473C110.615 8.06473 112.442 8.52153 114.011 9.43512C115.6 10.3487 116.831 11.6198 117.705 13.2484C118.579 14.8571 119.016 16.724 119.016 18.8492C119.016 20.9743 118.579 22.8511 117.705 24.4797C116.831 26.0884 115.6 27.3496 114.011 28.2632C112.442 29.1768 110.615 29.6336 108.529 29.6336ZM108.529 26.0288C109.84 26.0288 110.972 25.7409 111.925 25.1649C112.879 24.5691 113.614 23.7349 114.13 22.6624C114.646 21.5899 114.904 20.3189 114.904 18.8492C114.904 17.3596 114.646 16.0885 114.13 15.0359C113.614 13.9634 112.879 13.1392 111.925 12.5632C110.972 11.9872 109.84 11.6993 108.529 11.6993C107.258 11.6993 106.146 11.9872 105.193 12.5632C104.239 13.1392 103.494 13.9634 102.958 15.0359C102.442 16.0885 102.184 17.3596 102.184 18.8492C102.184 20.3189 102.442 21.5899 102.958 22.6624C103.494 23.7349 104.239 24.5691 105.193 25.1649C106.146 25.7409 107.258 26.0288 108.529 26.0288Z" fill="#131313"/>
<path d="M81.1764 29.2761V8.42223H88.9817C90.65 8.42223 92.0303 8.71021 93.1227 9.28617C94.2349 9.86214 95.0591 10.6367 95.5954 11.6099C96.1316 12.5632 96.3997 13.6258 96.3997 14.7976C96.3997 15.9098 96.1316 16.9525 95.5954 17.9256C95.079 18.879 94.2647 19.6535 93.1525 20.2493C92.0601 20.8253 90.65 21.1133 88.9221 21.1133H85.1982V29.2761H81.1764ZM91.9906 29.2761L87.7007 20.1004H92.0502L96.5785 29.2761H91.9906ZM85.1982 18.1938H88.7136C89.9449 18.1938 90.8486 17.8958 91.4246 17.3C92.0005 16.7042 92.2885 15.9197 92.2885 14.9465C92.2885 13.9733 92.0005 13.2087 91.4246 12.6526C90.8486 12.0766 89.9449 11.7886 88.7136 11.7886H85.1982V18.1938Z" fill="#131313"/>
<path d="M299.159 53.1091V40.0754H300.462L307.668 50.9306V40.0754H308.972V53.1091H307.668L300.462 42.2353V53.1091H299.159Z" fill="#131313"/>
<path d="M282.114 53.3325C280.873 53.3325 279.78 53.0532 278.837 52.4946C277.894 51.9236 277.155 51.1354 276.621 50.13C276.1 49.1121 275.839 47.9329 275.839 46.5923C275.839 45.2641 276.1 44.0972 276.621 43.0918C277.155 42.0739 277.894 41.2795 278.837 40.7085C279.78 40.1375 280.873 39.852 282.114 39.852C283.393 39.852 284.504 40.1375 285.447 40.7085C286.39 41.2795 287.117 42.0739 287.625 43.0918C288.147 44.0972 288.407 45.2641 288.407 46.5923C288.407 47.9329 288.147 49.1121 287.625 50.13C287.117 51.1354 286.39 51.9236 285.447 52.4946C284.504 53.0532 283.393 53.3325 282.114 53.3325ZM282.133 52.1967C283.113 52.1967 283.976 51.9733 284.721 51.5264C285.466 51.0796 286.043 50.4403 286.452 49.6086C286.862 48.7645 287.067 47.7591 287.067 46.5923C287.067 45.4254 286.862 44.4262 286.452 43.5945C286.043 42.7628 285.466 42.1236 284.721 41.6767C283.976 41.2298 283.113 41.0064 282.133 41.0064C281.152 41.0064 280.289 41.2298 279.545 41.6767C278.8 42.1236 278.216 42.7628 277.794 43.5945C277.385 44.4262 277.18 45.4254 277.18 46.5923C277.18 47.7591 277.385 48.7645 277.794 49.6086C278.216 50.4403 278.8 51.0796 279.545 51.5264C280.289 51.9733 281.152 52.1967 282.133 52.1967Z" fill="#131313"/>
<path d="M263.8 53.1091V40.0754H265.103V53.1091H263.8Z" fill="#131313"/>
<path d="M248.183 53.1091V41.1554H244.273V40.0754H253.396V41.1554H249.486V53.1091H248.183Z" fill="#131313"/>
<path d="M229.445 53.3325C228.191 53.3325 227.105 53.0532 226.187 52.4946C225.268 51.9236 224.56 51.1354 224.064 50.13C223.567 49.1121 223.319 47.9329 223.319 46.5923C223.319 45.2517 223.567 44.0786 224.064 43.0732C224.56 42.0553 225.268 41.2671 226.187 40.7085C227.118 40.1375 228.204 39.852 229.445 39.852C230.91 39.852 232.095 40.1996 233.001 40.8947C233.92 41.5774 234.509 42.5456 234.77 43.7993H233.336C233.138 42.9552 232.716 42.2787 232.07 41.7698C231.425 41.2485 230.55 40.9878 229.445 40.9878C228.489 40.9878 227.651 41.2112 226.931 41.6581C226.211 42.105 225.653 42.7504 225.256 43.5945C224.858 44.4262 224.66 45.4254 224.66 46.5923C224.66 47.7591 224.858 48.7645 225.256 49.6086C225.653 50.4403 226.211 51.0796 226.931 51.5264C227.651 51.9733 228.489 52.1967 229.445 52.1967C230.55 52.1967 231.419 51.9423 232.052 51.4333C232.697 50.9244 233.125 50.2541 233.336 49.4224H234.77C234.497 50.6513 233.907 51.6133 233.001 52.3084C232.108 52.9912 230.922 53.3325 229.445 53.3325Z" fill="#131313"/>
<path d="M207.987 53.3325C207.106 53.3325 206.305 53.1588 205.585 52.8112C204.878 52.4636 204.313 51.9237 203.891 51.1913C203.469 50.4465 203.258 49.5031 203.258 48.3611V40.0754H204.561V48.3797C204.561 49.2611 204.704 49.9872 204.989 50.5582C205.287 51.1168 205.697 51.5264 206.218 51.7871C206.74 52.0478 207.335 52.1781 208.006 52.1781C208.688 52.1781 209.284 52.0478 209.793 51.7871C210.302 51.5264 210.699 51.1168 210.985 50.5582C211.27 49.9872 211.413 49.2611 211.413 48.3797V40.0754H212.716V48.3611C212.716 49.5031 212.505 50.4465 212.083 51.1913C211.661 51.9237 211.09 52.4636 210.37 52.8112C209.663 53.1588 208.868 53.3325 207.987 53.3325Z" fill="#131313"/>
<path d="M184.1 53.1091V40.0754H188.122C189.127 40.0754 189.946 40.243 190.579 40.5782C191.225 40.9133 191.697 41.3664 191.995 41.9374C192.292 42.496 192.441 43.1352 192.441 43.8552C192.441 44.5503 192.286 45.1896 191.976 45.773C191.666 46.344 191.188 46.8033 190.542 47.1509C189.897 47.486 189.059 47.6536 188.029 47.6536H185.403V53.1091H184.1ZM191.026 53.1091L188.103 47.2439H189.593L192.59 53.1091H191.026ZM185.403 46.5923H188.029C189.084 46.5923 189.859 46.3378 190.356 45.8289C190.853 45.3199 191.101 44.662 191.101 43.8552C191.101 43.0235 190.859 42.3718 190.375 41.9001C189.891 41.416 189.102 41.174 188.01 41.174H185.403V46.5923Z" fill="#131313"/>
<path d="M168.483 53.1091V41.1554H164.573V40.0754H173.696V41.1554H169.786V53.1091H168.483Z" fill="#131313"/>
<path d="M150.764 53.3325C149.808 53.3325 148.976 53.1587 148.269 52.8112C147.573 52.4636 147.04 51.9795 146.667 51.3589C146.295 50.7258 146.109 50.0058 146.109 49.199H147.468C147.468 49.7452 147.592 50.2479 147.84 50.7072C148.089 51.1665 148.455 51.5388 148.939 51.8243C149.423 52.0974 150.031 52.234 150.764 52.234C151.409 52.234 151.949 52.1285 152.383 51.9174C152.83 51.694 153.172 51.4023 153.407 51.0423C153.643 50.6823 153.761 50.2727 153.761 49.8134C153.761 49.2673 153.643 48.8266 153.407 48.4914C153.184 48.1563 152.874 47.8832 152.477 47.6722C152.079 47.4612 151.626 47.2812 151.117 47.1322C150.621 46.9709 150.093 46.7971 149.535 46.6109C148.529 46.2633 147.791 45.8351 147.319 45.3261C146.847 44.8172 146.605 44.1655 146.593 43.3711C146.593 42.6884 146.748 42.0863 147.058 41.565C147.381 41.0312 147.846 40.6154 148.455 40.3175C149.063 40.0072 149.783 39.852 150.615 39.852C151.421 39.852 152.123 40.0072 152.719 40.3175C153.327 40.6154 153.799 41.0374 154.134 41.5836C154.469 42.1174 154.636 42.7318 154.636 43.4269H153.296C153.296 43.0297 153.19 42.6449 152.979 42.2725C152.781 41.8877 152.477 41.5774 152.067 41.3416C151.67 41.0933 151.161 40.9692 150.54 40.9692C150.031 40.9692 149.578 41.0623 149.181 41.2485C148.796 41.4222 148.492 41.6829 148.269 42.0305C148.045 42.3656 147.933 42.7628 147.933 43.2221C147.933 43.669 148.033 44.0352 148.231 44.3207C148.43 44.6062 148.709 44.842 149.069 45.0282C149.429 45.2144 149.851 45.3882 150.335 45.5496C150.819 45.6985 151.359 45.8723 151.955 46.0709C152.563 46.2819 153.103 46.5364 153.575 46.8343C154.047 47.1322 154.419 47.517 154.692 47.9887C154.965 48.448 155.102 49.0314 155.102 49.739C155.102 50.3472 154.941 50.9306 154.618 51.4892C154.307 52.0354 153.83 52.4822 153.184 52.8298C152.539 53.1649 151.732 53.3325 150.764 53.3325Z" fill="#131313"/>
<path d="M125.616 53.1091V40.0754H126.919L134.125 50.9306V40.0754H135.428V53.1091H134.125L126.919 42.2353V53.1091H125.616Z" fill="#131313"/>
<path d="M108.571 53.3325C107.329 53.3325 106.237 53.0532 105.294 52.4946C104.35 51.9236 103.612 51.1354 103.078 50.13C102.557 49.1121 102.296 47.9329 102.296 46.5923C102.296 45.2641 102.557 44.0972 103.078 43.0918C103.612 42.0739 104.35 41.2795 105.294 40.7085C106.237 40.1375 107.329 39.852 108.571 39.852C109.849 39.852 110.96 40.1375 111.904 40.7085C112.847 41.2795 113.573 42.0739 114.082 43.0918C114.603 44.0972 114.864 45.2641 114.864 46.5923C114.864 47.9329 114.603 49.1121 114.082 50.13C113.573 51.1354 112.847 51.9236 111.904 52.4946C110.96 53.0532 109.849 53.3325 108.571 53.3325ZM108.589 52.1967C109.57 52.1967 110.433 51.9733 111.177 51.5264C111.922 51.0796 112.499 50.4403 112.909 49.6086C113.319 48.7645 113.523 47.7591 113.523 46.5923C113.523 45.4254 113.319 44.4262 112.909 43.5945C112.499 42.7628 111.922 42.1236 111.177 41.6767C110.433 41.2298 109.57 41.0064 108.589 41.0064C107.609 41.0064 106.746 41.2298 106.001 41.6767C105.256 42.1236 104.673 42.7628 104.251 43.5945C103.841 44.4262 103.636 45.4254 103.636 46.5923C103.636 47.7591 103.841 48.7645 104.251 49.6086C104.673 50.4403 105.256 51.0796 106.001 51.5264C106.746 51.9733 107.609 52.1967 108.589 52.1967Z" fill="#131313"/>
<path d="M86.7692 53.3325C85.5155 53.3325 84.4294 53.0532 83.5108 52.4946C82.5922 51.9236 81.8847 51.1354 81.3882 50.13C80.8917 49.1121 80.6434 47.9329 80.6434 46.5923C80.6434 45.2517 80.8917 44.0786 81.3882 43.0732C81.8847 42.0553 82.5922 41.2671 83.5108 40.7085C84.4418 40.1375 85.5279 39.852 86.7692 39.852C88.234 39.852 89.4194 40.1996 90.3256 40.8947C91.2441 41.5774 91.8337 42.5456 92.0944 43.7993H90.6607C90.4621 42.9552 90.0401 42.2787 89.3946 41.7698C88.7491 41.2485 87.874 40.9878 86.7692 40.9878C85.8134 40.9878 84.9755 41.2112 84.2556 41.6581C83.5356 42.105 82.977 42.7504 82.5798 43.5945C82.1826 44.4262 81.984 45.4254 81.984 46.5923C81.984 47.7591 82.1826 48.7645 82.5798 49.6086C82.977 50.4403 83.5356 51.0796 84.2556 51.5264C84.9755 51.9733 85.8134 52.1967 86.7692 52.1967C87.874 52.1967 88.7429 51.9423 89.376 51.4333C90.0214 50.9244 90.4497 50.2541 90.6607 49.4224H92.0944C91.8213 50.6513 91.2317 51.6133 90.3256 52.3084C89.4318 52.9912 88.2464 53.3325 86.7692 53.3325Z" fill="#131313"/>
</svg>
